<svg enable-background="new 0 0 24.5 24.3" viewBox=".6 .6 23.2 23.1" xmlns="http://www.w3.org/2000/svg"><path d="m5.1 7.4-2.2-2.2c-1.3 1.8-2.1 3.8-2.3 6h3.1c.2-1.4.6-2.7 1.4-3.8z"/><path d="m10.8 3.8v-3.2c-2.2.3-4.3 1-6 2.6l2.2 2.2c1.1-.9 2.5-1.4 3.8-1.6z"/><path d="m17.4 5.4 2.2-2.2c-1.8-1.4-3.9-2.3-6-2.6v3.1c1.3.3 2.6.8 3.8 1.7z"/><path d="m20.7 11.2h3.1c-.2-2.1-1-4.2-2.3-6l-2.2 2.2c.7 1.1 1.2 2.4 1.4 3.8z"/><path d="m13.6 20.6v3.1c2-.2 3.9-.9 5.6-2.3l-2.2-2.2c-1.1.7-2.2 1.2-3.4 1.4z"/><path d="m3.8 13.8h-3.2c.3 2 1.1 4 2.5 5.7l2.2-2.2c-.7-1-1.2-2.2-1.5-3.5z"/><path d="m20.6 13.8c-.3 1.2-.8 2.4-1.6 3.5l2.2 2.2c1.3-1.7 2.2-3.6 2.5-5.7z"/><path d="m7.4 19.2-2.2 2.2c1.7 1.2 3.6 2 5.6 2.3v-3.1c-1.2-.2-2.4-.7-3.4-1.4z"/><path d="m14 6.4v3.8h3.8c.3 0 .5.2.5.5v2.9c0 .3-.2.5-.5.5h-3.8v3.8c0 .3-.2.5-.5.5h-2.8c-.3 0-.5-.2-.5-.5v-3.9h-3.8c-.3 0-.4-.2-.4-.5v-2.9c0-.3.2-.5.5-.5h3.8v-3.7c0-.3.2-.5.5-.5h2.8c.2 0 .4.3.4.5z"/></svg>