<svg enable-background="new 0 0 48 48" viewBox="11.75 11.75 24.5 24.5" xmlns="http://www.w3.org/2000/svg"><g><path d="m24 11.75c-6.765 0-12.25 5.483-12.25 12.25s5.485 12.25 12.25 12.25 12.25-5.483 12.25-12.25-5.485-12.25-12.25-12.25zm7.086 13.769c0 .278-.227.506-.506.506h-4.555v4.618c0 .279-.227.507-.506.507h-3.037c-.279 0-.506-.228-.506-.507v-4.618h-4.556c-.279 0-.506-.228-.506-.506v-3.037c0-.278.227-.506.506-.506h4.555v-4.555c0-.279.228-.507.506-.507h3.037c.279 0 .506.227.506.507v4.555h4.555c.279 0 .506.228.506.506v3.037z"/></g></svg>