<svg enable-background="new 0 0 48 48" viewBox="13 13 22 22" xmlns="http://www.w3.org/2000/svg"><g><path clip-rule="evenodd" d="m25.5 35c-.275 0-.5-.225-.5-.5v-9c0-.275.225-.5.5-.5h9c.275 0 .5.225.5.5v9c0 .275-.225.5-.5.5zm-3 0c.275 0 .5-.225.5-.5v-9c0-.275-.225-.5-.5-.5h-9c-.275 0-.5.225-.5.5v9c0 .275.225.5.5.5zm12-12c.275 0 .5-.225.5-.5v-9c0-.275-.225-.5-.5-.5h-9c-.275 0-.5.225-.5.5v9c0 .275.225.5.5.5zm-12 0c.275 0 .5-.225.5-.5v-9c0-.275-.225-.5-.5-.5h-9c-.275 0-.5.225-.5.5v9c0 .275.225.5.5.5z" fill-rule="evenodd"/></g></svg>