<svg enable-background="new 0 0 48 48" viewBox="11.54 12 25.4 23.06" xmlns="http://www.w3.org/2000/svg"><g><path d="m24.082 35.068c-.39 0-.982-.877-1.238-1.133-.096-.096-.096-.258 0-.354 3.388-3.389 6.776-6.777 10.164-10.166 1.076-1.076 1.859-2.324 1.977-3.884.195-2.589-1.56-4.985-4.142-5.451-3.023-.545-4.898 1.549-6.798 3.449-2.209 2.21-4.419 4.42-6.629 6.63-1.523 1.523-4.203 3.412-3.849 5.844.401 2.756 3.819 3.379 5.639 1.56l1.361-1.361c2.167-2.168 4.334-4.335 6.502-6.503 1.137-1.138 2.273-2.274 3.411-3.411 1.363-1.364-.385-3.155-1.731-1.805-.419.36-.792.792-1.183 1.183-1.712 1.713-5.909 5.924-6.307 6.303-.202.191-.662.876-.969.569-.347-.347-.693-.693-1.04-1.04-.096-.096-.096-.258 0-.353 1.583-1.579 6.725-6.854 8.04-8.06.917-.84 2.062-1.255 3.221-1.036 2.68.506 3.185 3.85 1.417 5.618-.454.454-.907.907-1.361 1.361-2.167 2.168-4.335 4.335-6.502 6.503-1.473 1.473-3.075 3.619-4.991 4.552-2.381 1.159-5.389.438-6.794-1.86-1.302-2.129-.817-4.937.917-6.67 3.516-3.517 7.033-7.034 10.549-10.551.695-.694 1.368-1.39 2.218-1.905 2.078-1.261 4.733-1.461 6.95-.44 4.665 2.146 5.298 8.385 1.806 11.877-3.436 3.437-6.872 6.873-10.308 10.31-.087.086-.19.224-.33.224z"/></g></svg>