<svg enable-background="new 0 0 48 48" viewBox="16.15 12.15 16.71 24.85" xmlns="http://www.w3.org/2000/svg"><g><g><polygon points="28.88 28.088 27.296 30.937 24.5 29.26 21.704 30.937 20.12 28.088 19 28.105 19 37 24.5 32 30 36.993 30 28.105"/><path d="m31.512 20.5 1.342-2.238-2.281-1.268.043-2.609-2.609.042-1.268-2.28-2.239 1.342-2.238-1.343-1.268 2.28-2.609-.042.043 2.609-2.281 1.268 1.342 2.238-1.342 2.238 2.281 1.268-.043 2.609 2.609-.042 1.268 2.28 2.238-1.343 2.238 1.343 1.268-2.28 2.609.042-.043-2.609 2.281-1.268zm-7.814-4.049-1.01-.65-.576 1.102-1.246-.021.029 1.267-1.099.613.653.935-1.693 1.303.482-.65-1.008-1.604 1.712-.913-.031-1.941 1.959.041.951-1.706 1.53 1.011.649-.479z"/></g></g></svg>