<svg enable-background="new 0 0 48 48" viewBox="15 14.99 22.07 18.01" xmlns="http://www.w3.org/2000/svg"><g><path d="m31 27.307v2.693c0 .55-.45 1-1 1h-12c-.55 0-1-.45-1-1v-12c0-.55.45-1 1-1h10.651l1.737-1.737c-.433-.162-.898-.263-1.388-.263h-10c-2.205 0-4 1.794-4 4v10c0 2.206 1.795 4 4 4h10c2.205 0 4-1.794 4-4v-3.693z"/><path d="m36.92 17.454c.199.196.2.52.002.718l-11.004 11.003c-.197.198-.522.198-.719 0l-5.896-5.896c-.197-.197-.197-.522 0-.72l2.334-2.333c.197-.198.521-.198.719 0l2.844 2.843c.197.197.521.197.72 0l7.93-7.929c.198-.198.522-.199.722-.002z"/></g></svg>