<svg enable-background="new 0 0 48 48" viewBox="14 10 27 26" xmlns="http://www.w3.org/2000/svg"><g><path d="m36 10c-2.761 0-5 2.238-5 5s2.239 5 5 5 5-2.238 5-5-2.239-5-5-5zm3 5.5c0 .275-.225.5-.5.5h-1.5v1.5c0 .275-.225.5-.5.5h-1c-.275 0-.5-.225-.5-.5v-1.5h-1.5c-.275 0-.5-.225-.5-.5v-1c0-.275.225-.5.5-.5h1.5v-1.5c0-.275.225-.5.5-.5h1c.275 0 .5.225.5.5v1.5h1.5c.275 0 .5.225.5.5zm-13 3v-6.5l2.715 2.715c-.004.095-.015.189-.015.285 0 1.477.444 2.85 1.201 4h-3.401c-.275 0-.5-.225-.5-.5zm4.696 1.5c.65.689 1.431 1.251 2.304 1.647v13.853c0 .275-.225.5-.5.5h-18c-.275 0-.5-.225-.5-.5v-23c0-.275.225-.5.5-.5h10.5v7.5c0 .275.225.5.5.5z"/></g></svg>