<svg enable-background="new 0 0 48 48" viewBox="12 12 24 24" xmlns="http://www.w3.org/2000/svg"><g><g><path d="m35 12h-22c-.55 0-1 .45-1 1v22c0 .55.45 1 1 1h22c.55 0 1-.45 1-1v-22c0-.55-.45-1-1-1zm-1 22h-20v-20h20zm-2.97-15.616-1.823 1.823 1.616 1.616c.097.097.065.177-.073.177h-4.5c-.138 0-.25-.112-.25-.25v-4.5c0-.138.08-.17.177-.073l1.616 1.616 1.823-1.823c.097-.097.256-.097.354 0l1.061 1.06c.097.098.097.257-.001.354zm0 11.586-1.061 1.06c-.097.097-.256.097-.354 0l-1.823-1.823-1.616 1.616c-.096.097-.176.065-.176-.073v-4.5c0-.138.112-.25.25-.25h4.5c.138 0 .17.08.073.177l-1.616 1.616 1.823 1.823c.098.097.098.256 0 .354zm-14.06-11.94 1.061-1.06c.097-.097.256-.097.354 0l1.823 1.823 1.616-1.616c.096-.097.176-.065.176.073v4.5c0 .138-.112.25-.25.25h-4.5c-.138 0-.17-.08-.073-.177l1.616-1.616-1.823-1.823c-.098-.097-.098-.256 0-.354zm0 11.586 1.823-1.823-1.616-1.616c-.097-.097-.065-.177.073-.177h4.5c.138 0 .25.112.25.25v4.5c0 .138-.08.17-.177.073l-1.616-1.616-1.823 1.823c-.097.097-.256.097-.354 0l-1.061-1.06c-.097-.098-.097-.257.001-.354z"/></g></g></svg>