<svg enable-background="new 0 0 48 48" viewBox="12 12 24 24" xmlns="http://www.w3.org/2000/svg"><g><path d="m20 24.5v-3.5l4 4h-3.5c-.275 0-.5-.225-.5-.5zm-.5 1.5h4.5v9.5c0 .275-.225.5-.5.5h-11c-.275 0-.5-.225-.5-.5v-14c0-.275.225-.5.5-.5h6.5v4.5c0 .275.225.5.5.5zm6.521-9h5.957c.551 0 1.022-.433 1.022-.985v-.982c0-.552-.471-1.033-1.021-1.033h-.979v-.912c0-.552-.45-1.088-1-1.088h-2c-.55 0-1 .536-1 1.088v.912h-.979c-.55 0-1.021.481-1.021 1.033v.982c0 .552.471.985 1.021.985zm.779 11.2h-1.8v2.8h1.8zm8.7-13.2h-1.5v2.019c0 .551-.45.981-1 .981h-8c-.55 0-1-.43-1-.981v-2.019h-1.5c-.275 0-.5.237-.5.513v5.487l2.8 2.8h2v-3.79l5.992 5.991-5 4.999h7.708c.275 0 .5-.151.5-.427v-15.06c0-.276-.225-.513-.5-.513zm-4.889 11.001-2.611-2.612v1.611h-3v2h3v1.612z"/></g></svg>