<svg enable-background="new 0 0 48 48" viewBox="14 10 20 26" xmlns="http://www.w3.org/2000/svg"><g><path d="m33.5 14h-5.5v-2c0-1.1-.9-2-2-2h-4c-1.1 0-2 .9-2 2v2h-5.5c-.275 0-.5.225-.5.5v1c0 .275.225.5.5.5h19c.275 0 .5-.225.5-.5v-1c0-.275-.225-.5-.5-.5zm-11.458 0h-.042v-2h4v2z"/><path d="m32.294 17h-16.794c-.39 0-.5.176-.5.5v18.174s.11.326.5.326h16.794c.39 0 .706-.176.706-.5v-18.087c0-.324-.316-.413-.706-.413zm-12.294 15.5c0 .276-.224.5-.5.5h-1c-.276 0-.5-.224-.5-.5v-12c0-.276.224-.5.5-.5h1c.276 0 .5.224.5.5zm5 0c0 .275-.225.5-.5.5h-1c-.275 0-.5-.225-.5-.5v-12c0-.275.225-.5.5-.5h1c.275 0 .5.225.5.5zm5 0c0 .276-.224.5-.5.5h-1c-.276 0-.5-.224-.5-.5v-12c0-.276.224-.5.5-.5h1c.276 0 .5.224.5.5z"/><path d="m20 32.5c0 .275-.225.5-.5.5h-1c-.275 0-.5-.225-.5-.5v-12c0-.275.225-.5.5-.5h1c.275 0 .5.225.5.5zm5 0c0 .275-.225.5-.5.5h-1c-.275 0-.5-.225-.5-.5v-12c0-.275.225-.5.5-.5h1c.275 0 .5.225.5.5zm5 0c0 .275-.225.5-.5.5h-1c-.275 0-.5-.225-.5-.5v-12c0-.275.225-.5.5-.5h1c.275 0 .5.225.5.5z" opacity=".3"/></g></svg>