<?xml version="1.0" encoding="utf-8"?><!-- Generator: Adobe Illustrator 27.8.1, SVG Export Plug-In . SVG Version: 6.00 Build 0)  --><svg enable-background="new 0 0 22 22" viewBox="0 0 22 22" xmlns="http://www.w3.org/2000/svg"><polyline points=".1 .1 3 .1 3 3 .1 3 .1 .1"/><polyline points=".1 6 3 6 3 8.9 .1 8.9 .1 6"/><polyline points=".1 11.9 3 11.9 3 14.8 .1 14.8 .1 11.9"/><polyline points="19.6 8.9 6 8.9 6 6 19.6 6 19.6 8.9"/><rect height="3" width="13.6" x="6" y=".1"/><polygon points="16.7 12.1 11.2 17 16.7 21.9 16.7 18.5 22 18.5 22 15.1 16.7 15.1"/><polygon fill="none" points="11.2 17 16.7 21.9 16.7 18.5 22 18.5 22 15.1 16.7 15.1 16.7 14.8 13.7 14.8"/><polygon points="12.4 11.9 6 11.9 6 14.8 9.2 14.8 9.2 14.8"/><polygon points="13.7 14.8 16.7 14.8 16.7 12.1"/></svg>