<?xml version="1.0" encoding="utf-8"?><!-- Generator: Adobe Illustrator 27.8.1, SVG Export Plug-In . SVG Version: 6.00 Build 0)  --><svg enable-background="new 0 0 22 22" viewBox="0 0 22 22" xmlns="http://www.w3.org/2000/svg"><polyline points=".2 .2 3.1 .2 3.1 3.1 .2 3.1 .2 .2"/><polyline points=".2 6.1 3.1 6.1 3.1 9 .2 9 .2 6.1"/><polyline points=".2 12 3.1 12 3.1 14.9 .2 14.9 .2 12"/><polyline points="9 14.9 6.1 14.9 6.1 12 9 12 9 14.9"/><polyline points="19.7 9 6.1 9 6.1 6.1 19.7 6.1 19.7 9"/><rect height="3" width="13.6" x="6.1" y=".2"/><polygon points="16.1 14 10.8 14 10.8 17.6 16.1 17.6 16.1 21.2 21.6 15.9 16.1 10.7"/></svg>