<svg enable-background="new 0 0 48 48" viewBox="12 12 24 24" xmlns="http://www.w3.org/2000/svg"><g><path d="m30.917 32-2.025-11.039c-.215-1.078-1.292-1.961-2.392-1.961h-5c-1.1 0-2.177.883-2.392 1.961l-2.025 11.039zm-9.964-10.646c.028-.142.287-.354.432-.354h1.987c-.145 0-.403.212-.432.354l-1.579 8.646h-1.987zm2.047-5.854v-3c0-.275.225-.5.5-.5h1c.275 0 .5.225.5.5v3c0 .275-.225.5-.5.5h-1c-.275 0-.5-.225-.5-.5zm6.263 2.485c-.195-.194-.195-.513 0-.707l2.139-2.14c.194-.194.513-.194.707 0l.768.768c.195.194.195.513 0 .707l-2.14 2.14c-.194.194-.513.194-.707 0zm3.737 16.015v2h-18v-2c0-.55.45-1 1-1h16c.55 0 1 .45 1 1zm3-10.5v1c0 .275-.225.5-.5.5h-3c-.275 0-.5-.225-.5-.5v-1c0-.275.225-.5.5-.5h3c.275 0 .5.225.5.5zm-20.5 1.5h-3c-.275 0-.5-.225-.5-.5v-1c0-.275.225-.5.5-.5h3c.275 0 .5.225.5.5v1c0 .275-.225.5-.5.5zm-.362-8.387c-.194-.194-.194-.513 0-.707l.768-.768c.195-.194.513-.194.707 0l2.14 2.14c.194.194.194.513 0 .707l-.768.768c-.195.194-.513.194-.707 0z"/></g></svg>