<svg enable-background="new 0 0 48 48" viewBox="11.75 11.75 24.5 24.5" xmlns="http://www.w3.org/2000/svg"><g><path d="m24 11.75c-6.765 0-12.25 5.484-12.25 12.25s5.485 12.25 12.25 12.25 12.25-5.484 12.25-12.25-5.485-12.25-12.25-12.25zm2 19.75c0 .275-.225.5-.5.5h-3c-.275 0-.5-.225-.5-.5v-3c0-.275.225-.5.5-.5h3c.275 0 .5.225.5.5zm0-11c0 .275-.044.721-.098.99l-.9 4.77c-.053.269-.322.74-.598.74h-.785c-.275 0-.545-.471-.6-.74l-.92-4.645c-.055-.27-.1-.84-.1-1.115v-4c0-.275.225-.5.5-.5h3c.275 0 .5.225.5.5v4z"/></g></svg>