<svg enable-background="new 0 0 48 48" viewBox="10 13 26 23" xmlns="http://www.w3.org/2000/svg"><g><path d="m21.616 24.293-5.232 4.359c-.211.176-.384.096-.384-.179v-2.473h-5.5c-.276 0-.5-.224-.5-.5v-3c0-.276.224-.5.5-.5h5.5v-2.473c0-.275.174-.356.386-.182l5.229 4.309c.211.175.212.463.001.639zm14.384-10.293v18c0 .127-.028.246-.072.358-.015.038-.037.069-.057.106-.037.07-.078.136-.131.194-.03.035-.063.063-.098.093-.057.048-.117.089-.184.123-.042.022-.082.043-.127.06-.024.008-.044.024-.069.031l-11 3c-.085.023-.174.035-.262.035-.217 0-.431-.07-.607-.205-.248-.19-.393-.483-.393-.795v-2h-4c-.553 0-1-.447-1-1v-2.611l5-4.167v-2.498l-5-4.122v-4.602c0-.553.447-1 1-1h16c.039 0 .071.018.109.021.056.007.107.018.161.033.09.025.17.062.247.11.028.018.063.02.09.04.016.012.022.032.037.046.077.065.137.144.191.23.021.035.05.064.067.101.06.129.098.269.098.419zm-2 1.31-9 2.454v15.926l9-2.454z"/></g></svg>