<svg enable-background="new 0 0 48 48" viewBox="12 12.14 23.62 23.6" xmlns="http://www.w3.org/2000/svg"><g><path d="m34.031 18.378c1.251-1.252 2.461-2.912.707-4.667l-.707-.707c-1.775-1.774-3.514-.446-4.667.707l-3.188 3.187c-.048.049-.086.104-.128.156l-1.553-1.554c-.321-.321-.836-.329-1.148-.017l-1.414 1.414c-.311.312-.305.827.017 1.149l1.115 1.114-8.98 8.98c-.724.723-1.097 1.943-.887 2.902 0 .059-.071.259-.132.325l-.352.352c-.936.936-.956 2.439-.045 3.351.912.912 2.415.892 3.351-.044l.354-.354c.064-.059.266-.13.356-.126.926.205 2.147-.168 2.87-.891l8.981-8.98 1.114 1.114c.321.321.836.329 1.148.017l1.414-1.414c.312-.312.305-.826-.017-1.148l-1.553-1.554c.052-.042.107-.078.156-.127zm-15.421 14.289c-.389.389-1.114.617-1.613.509-.498-.109-1.225.119-1.613.508l-.353.354c-.389.389-1.005.408-1.37.044-.364-.364-.344-.981.045-1.37l.354-.354c.389-.389.617-1.114.508-1.613-.109-.498.119-1.224.508-1.612l8.981-8.98 3.536 3.535z"/><path d="m15.206 29-.132.132c-.389.389-.617 1.114-.508 1.612.109.499-.119 1.225-.508 1.613l-.354.354c-.389.389-.409 1.006-.045 1.37.365.364.981.345 1.37-.044l.353-.354c.389-.389 1.115-.617 1.613-.508.499.108 1.225-.12 1.613-.509l3.669-3.666z" opacity=".3"/></g></svg>