<svg viewBox="11 12 22 24" xmlns="http://www.w3.org/2000/svg"><g><path d="m26 18.5v-6.5l7 7h-6.5c-.275 0-.5-.225-.5-.5zm-.5 1.5c-.275 0-.5-.225-.5-.5v-7.5h-10.5c-.275 0-.5.225-.5.5v12.5h4v-1.779c0-.973.516-1.651 1.396-1.651.352 0 .589.108.913.358l5.711 4.799c.37.278.583.766.583 1.297 0 .529-.26 1.028-.7 1.371l-5.521 4.755c-.366.285-.612.4-.977.4-.885 0-1.404-.679-1.404-1.651v-1.899h-4v4.5c0 .275.225.5.5.5h18c.275 0 .5-.225.5-.5v-15.5zm-6.5 12.896c0 .148.177.195.294.104l5.685-4.793c.065-.051.097-.119.097-.186 0-.053-.026-.104-.079-.144l-5.713-4.764c-.118-.089-.284-.041-.284.108v2.779h-7.65c-.35 0-.35.244-.35.505v3.111c0 .281.067.384.35.384h7.65z"/></g></svg>