<svg enable-background="new 0 0 48 48" viewBox="14 12 22.08 24" xmlns="http://www.w3.org/2000/svg"><g><path d="m30 30h-7.65c-.283 0-.35-.103-.35-.384 0 0 0-2.716 0-3.111s.125-.505.35-.505h7.65v-2.779c0-.148.166-.196.283-.105l5.713 4.764c.053.04.079.091.079.144 0 .066-.031.135-.097.186l-5.685 4.793c-.116.089-.293.042-.293-.107zm1.196 4.071c-.327.255-.479.376-.835.376-.861 0-1.361-.695-1.361-1.551v-1.896h-6.65c-1.047 0-1.35-.316-1.35-1.384v-3.329c0-1.051.605-1.287 1.35-1.287h6.65v-1.779c0-.855.497-1.552 1.353-1.552.355 0 .606.121.887.34l1.76 1.55v-3.559h-7.5c-.275 0-.5-.225-.5-.5v-7.5h-10.5c-.275 0-.5.225-.5.5v23c0 .275.225.5.5.5h18c.275 0 .5-.225.5-.5v-2.949zm-4.696-15.071h6.5l-7-7v6.5c0 .275.225.5.5.5z"/></g></svg>