<?xml version="1.0" encoding="UTF-8"?><svg viewBox="0 0 22 22" xmlns="http://www.w3.org/2000/svg"><!-- Generator: Adobe Illustrator 28.7.1, SVG Export Plug-In . SVG Version: 1.2.0 Build 142)  --><g><g><g><path d="m6.8 14.4v-3.1c0-.7-.3-1.3-.7-1.7-.5-.4-1.1-.6-1.9-.6s-1 0-1.4.3c-.4.2-.8.5-1 .8-.3.3-.4.7-.4 1.1 0 .1 1.4.1 1.4.1 0-.4.1-.6.4-.8s.6-.3 1-.3.8.1 1 .3.3.5.3.9v.4h-1c-1 0-1.8.2-2.3.6-.6.4-.9 1-.9 1.8s.2 1.1.7 1.5 1 .6 1.7.6 1.3-.2 1.8-.7c0 .2 0 .4.1.5h1.4v-.2c-.2-.4-.2-.9-.2-1.5zm-1.4-1.6v1.2c-.1.3-.4.5-.6.7-.3.2-.6.3-1 .3s-.6 0-.9-.3c-.2-.2-.3-.4-.3-.8 0-.8.7-1.1 2-1.1z"/><path d="m11.4 9c-.7 0-1.3.2-1.8.7v-3.4h-1.4v9.9h1.3v-.6c.5.5 1.2.7 1.9.7s1.5-.3 2-1c.5-.6.7-1.5.7-2.6 0-1.2-.2-2.1-.7-2.7-.5-.7-1.2-1-2-1zm-1.8 2.2c.3-.7.8-1 1.5-1s.9.2 1.2.6.4 1 .4 1.8-.1 1.5-.4 1.9-.7.6-1.2.6-1.2-.3-1.5-1z"/><path d="m19.4 13.7c0 .5-.2.7-.5 1-.3.2-.6.3-1 .3-.6 0-1-.2-1.3-.6s-.5-1-.5-1.7v-.2c0-.8.2-1.4.5-1.8s.7-.6 1.3-.6.7.1 1 .4.4.6.5 1c0 .1 1.3.1 1.3.1 0-.9-.3-1.5-.8-2s-1.2-.7-2-.7-1.2.2-1.7.4c-.5.3-.8.7-1.1 1.3-.2.5-.4 1.1-.4 1.8v.2c0 1.1.3 2 .9 2.6s1.3 1 2.3 1 .9-.1 1.4-.3c.4-.2.8-.5 1-.9.3-.4.4-.8.4-1.2 0-.1-1.3-.1-1.3-.1z"/></g></g></g></svg>