<?xml version="1.0" encoding="UTF-8"?><svg viewBox="0 0 22 22" xmlns="http://www.w3.org/2000/svg"><!-- Generator: Adobe Illustrator 28.7.1, SVG Export Plug-In . SVG Version: 1.2.0 Build 142)  --><g><g><path d="m21.8 11.9h-5.5c0-.5.2-.9.4-1.2.3-.4.7-.6 1.3-.6s.7.1 1 .4.4.6.5 1c0 .1 1.3.1 1.3.1 0-.9-.3-1.5-.8-2s-1.2-.7-2-.7-1.2.2-1.7.4c-.5.3-.8.7-1.1 1.3-.2.4-.3.9-.3 1.3h-.7c0-.8-.3-1.5-.7-2-.5-.7-1.2-1-2-1s-1.3.2-1.8.7v-3.4h-1.4v5.8h-1.3v-.7c0-.7-.3-1.3-.7-1.7-.5-.4-1.1-.6-1.9-.6s-1 0-1.4.3c-.4.2-.8.5-1 .8-.3.3-.4.7-.4 1.1 0 .1 1.4.1 1.4.1 0-.4.1-.6.4-.8s.6-.3 1-.3.8.1 1 .3.3.5.3.9v.4h-1c-.6 0-1.1 0-1.6.2h-2.9v1.4h1.1c0 .2-.1.5-.1.7 0 .6.2 1.1.7 1.5s1 .6 1.7.6 1.3-.2 1.8-.7c0 .2 0 .4.1.5h1.4v-.2c-.2-.4-.2-.9-.2-1.5v-1h1.3v2.7h1.3v-.6c.5.5 1.2.7 1.9.7s1.5-.3 2-1c.4-.5.6-1.1.7-1.9h.7c.1.8.4 1.4.8 1.9.6.6 1.3 1 2.3 1s.9-.1 1.4-.3c.4-.2.8-.5 1-.9.3-.4.4-.8.4-1.2 0-.1-1.3-.1-1.3-.1 0 .5-.2.7-.5 1-.3.2-.6.3-1 .3-.6 0-1-.2-1.3-.6-.2-.3-.3-.6-.4-1.1h5.5v-1.4zm-12.2 1.4h3.1c0 .4-.2.8-.4 1-.3.4-.7.6-1.2.6s-1.2-.3-1.5-1v-.7zm0-2.3c.3-.7.8-1 1.5-1s.9.2 1.2.6c.2.3.3.7.4 1.2h-3.1zm-4.2 2.3v.7c-.1.3-.4.5-.6.7-.3.2-.6.3-1 .3s-.6 0-.9-.3c-.2-.2-.3-.4-.3-.8s0-.4.2-.6z"/></g></g></svg>