<?xml version="1.0" encoding="UTF-8"?><svg viewBox="0 0 22 22" xmlns="http://www.w3.org/2000/svg"><!-- Generator: Adobe Illustrator 28.7.1, SVG Export Plug-In . SVG Version: 1.2.0 Build 142)  --><g><g><g><path d="m.8 4.4v13.4h14.2v-13.4zm6.5 11.5h-1.5c0-.2-.1-.4-.1-.6-.5.5-1.1.7-1.8.7s-1.3-.2-1.7-.6c-.5-.4-.7-.9-.7-1.5s.3-1.3.9-1.8c.6-.4 1.3-.6 2.3-.6h1v-.4c0-.4-.1-.7-.3-.9s-.5-.3-1-.3-.7 0-1 .3c-.2.2-.4.4-.4.7 0 .1-1.4.1-1.4.1 0-.5.1-.8.4-1.2.3-.3.6-.6 1-.8s.9-.3 1.4-.3c.8 0 1.5.2 1.9.6.5.4.7 1 .7 1.7v3.1c0 .6 0 1.1.2 1.4v.3zm7.1-3.5c0 1.1-.2 1.9-.7 2.6s-1.2 1-2 1-1.4-.2-1.9-.7v.6h-1.4v-9.9h1.4v3.4c.5-.4 1.1-.7 1.8-.7s1.6.3 2 1c.5.6.7 1.5.7 2.6z"/><path d="m11.3 9.9c-.7 0-1.2.3-1.5 1v2.9c.3.7.8 1 1.5 1s.9-.2 1.2-.6.4-1 .4-1.9-.1-1.4-.4-1.8-.7-.6-1.2-.6z"/><path d="m2.8 13.7c0 .3.1.6.3.8s.5.3.9.3.7 0 1-.3c.3-.2.5-.4.6-.7v-1.2h-.8c-1.4 0-2 .4-2 1.1z"/></g><path d="m20.1 13.5c0 .5-.2.7-.5 1-.3.2-.6.3-1 .3-.6 0-1-.2-1.3-.6s-.5-1-.5-1.7v-.2c0-.8.2-1.4.5-1.8s.7-.6 1.3-.6.7.1 1 .4.4.6.5 1c0 .1 1.3.1 1.3.1 0-.9-.3-1.5-.8-2s-1.2-.7-2-.7-1.2.2-1.7.4c-.5.3-.8.7-1.1 1.3-.2.5-.4 1.1-.4 1.8v.2c0 1.1.3 2 .9 2.6s1.3 1 2.3 1 .9-.1 1.4-.3c.4-.2.8-.5 1-.9.3-.4.4-.8.4-1.2 0-.1-1.3-.1-1.3-.1z"/></g></g></svg>