<?xml version="1.0" encoding="UTF-8"?><svg viewBox="0 0 22 22" xmlns="http://www.w3.org/2000/svg"><!-- Generator: Adobe Illustrator 28.7.1, SVG Export Plug-In . SVG Version: 1.2.0 Build 142)  --><g><g><g><polygon points="2 7.7 2 9.4 4.1 7.9 4.1 15.8 5.7 15.8 5.7 6 4.2 6 2 7.7"/><path d="m10.8 12.5c.5-.6.9-1.1 1.2-1.5s.5-.8.6-1.2c.1-.3.2-.7.2-1.1 0-.5-.1-1-.4-1.4-.2-.4-.6-.8-1-1s-.9-.4-1.5-.4-1.1.1-1.5.4-.8.6-1 1.1-.4 1-.4 1.6c0 .1 1.5.1 1.5.1 0-.5 0-.7.2-1 .1-.2.3-.4.5-.5s.4-.2.7-.2.5 0 .7.2c.2.1.4.3.5.5s.2.5.2.7 0 .5-.1.7c0 .2-.2.5-.4.7-.2.3-.4.6-.8.9l-2.9 3.3v1.3h5.9v-1.5h-3.7l1.5-1.8z"/><path d="m19.4 11.5c-.3-.3-.6-.6-1-.7.3-.2.6-.4.8-.7.3-.4.4-.9.4-1.4s-.1-.9-.3-1.4c-.2-.4-.6-.7-1-1-.4-.2-.9-.4-1.5-.4s-1 .1-1.5.3c-.4.2-.8.6-1.1 1s-.4.9-.4 1.4v.2s1.5 0 1.5 0c0-.4 0-.6.2-.8.1-.2.3-.3.5-.4.4-.2 1-.2 1.4 0s.3.3.4.5.2.4.2.7 0 .5-.2.7c-.1.2-.3.4-.5.5s-.5.2-.8.2h-.9v1.5h.9c.4 0 .7 0 .9.2.3.1.4.3.6.5.1.2.2.5.2.8s0 .5-.2.7-.3.4-.5.5c-.5.2-1.1.2-1.6 0-.2-.1-.4-.2-.5-.4s-.2-.4-.2-.6c0-.1-1.6-.1-1.6-.1v.2c0 .5.2 1 .4 1.4.3.4.6.7 1.1 1 .5.2 1 .3 1.6.3s1.1-.1 1.6-.4c.5-.2.9-.6 1.1-1 .3-.4.4-.9.4-1.5s-.2-1.2-.5-1.6z"/></g></g></g></svg>