<?xml version="1.0" encoding="UTF-8"?><svg viewBox="0 0 22 22" xmlns="http://www.w3.org/2000/svg"><!-- Generator: Adobe Illustrator 28.7.1, SVG Export Plug-In . SVG Version: 1.2.0 Build 142)  --><g><g><g><path d="m3.2 11.4c.3-.2.5-.4.6-.7s.2-.6.2-.9v-.4c0-.3 0-.6-.2-.9-.1-.3-.3-.5-.6-.7s-.6-.2-1-.2-.7 0-1 .2-.5.4-.6.7-.2.6-.2.9v.4c0 .3 0 .6.2.9.1.3.3.5.6.7s.6.2 1 .2.7 0 1-.2zm-.3-1.6c0 .2 0 .4-.1.5 0 .1-.2.2-.4.2s-.4 0-.5-.2c0-.2-.1-.3-.1-.5v-.4c0-.2 0-.4.1-.5 0-.1.2-.2.4-.2s.4 0 .4.2.1.3.1.6v.4z"/><path d="m7.9 13.1c-.1-.3-.3-.5-.6-.7s-.6-.2-1-.2-.7 0-1 .2-.5.4-.6.7-.2.6-.2.9v.4c0 .3 0 .6.2.9.1.3.3.5.6.7s.6.2 1 .2.7 0 1-.2.5-.4.6-.7.2-.6.2-.9v-.4c0-.3 0-.6-.2-.9zm-1 .9v.4c0 .2 0 .4-.1.6 0 .1-.2.2-.4.2s-.4 0-.5-.2c0-.2-.1-.3-.1-.5v-.4c0-.2 0-.4.1-.5 0-.1.2-.2.4-.2s.4 0 .4.2.1.3.1.6z"/><path d="m13 10.2c-.2-.2-.5-.3-.8-.3-.7-.1-1.3-.1-1.9 0-.3.1-.7.3-.9.5-.3.2-.5.6-.6.9 0 .1 1.3.4 1.3.4 0-.3.2-.5.4-.6.2-.2.5-.2.9-.2s.6 0 .8.2.3.4.3.7 0 .2 0 .2-.2 0-.4.1c-.2 0-.5 0-.9.1-.3 0-.6 0-.9.2-.3 0-.5.2-.8.3-.2.1-.4.3-.6.6-.1.2-.2.5-.2.9s0 .8.3 1.1c.2.3.5.5.8.7.3.1.7.2 1.1.2s.6 0 .9-.2c.3-.1.5-.2.6-.4s.1-.1.2-.2v.6h1.4v-4.1c0-.5 0-.8-.2-1.1s-.4-.5-.6-.7zm-.5 3v.6c0 .2 0 .4-.2.6-.1.2-.3.3-.5.5-.2.1-.5.2-.8.2s-.6 0-.7-.2c-.2-.1-.3-.3-.3-.6s0-.3.1-.4c0-.1.2-.2.4-.3.2 0 .4-.1.6-.1h.4c.1 0 .3 0 .4-.1h.4z"/><polygon points="5.7 7.7 1.5 16 1.4 16.1 2.8 16.1 7.1 7.7 5.7 7.7"/><path d="m16.8 11.3c.3-.2.5-.4.6-.7s.2-.6.2-.9v-.4c0-.3 0-.6-.2-.9-.1-.3-.3-.5-.6-.7s-.6-.2-1-.2-.7 0-1 .2-.5.4-.6.7-.2.6-.2.9v.4c0 .3 0 .6.2.9.1.3.3.5.6.7s.6.2 1 .2.7 0 1-.2zm-1.4-1c0-.2-.1-.3-.1-.5v-.4c0-.2 0-.4.1-.5 0-.1.2-.2.4-.2s.4 0 .4.2.1.3.1.6v.4c0 .2 0 .4-.1.5 0 .1-.2.2-.4.2s-.4 0-.5-.2z"/><path d="m21.4 13.1c-.1-.3-.3-.5-.6-.7s-.6-.2-1-.2-.7 0-1 .2-.5.4-.6.7-.2.6-.2.9v.4c0 .3 0 .6.2.9.1.3.3.5.6.7s.6.2 1 .2.7 0 1-.2.5-.4.6-.7.2-.6.2-.9v-.4c0-.3 0-.6-.2-.9zm-.9.9v.4c0 .2 0 .4-.1.6 0 .1-.2.2-.4.2s-.4 0-.5-.2c0-.2-.1-.3-.1-.5v-.4c0-.2 0-.4.1-.5 0-.1.2-.2.4-.2s.4 0 .5.2c0 .2.1.3.1.6z"/><polygon points="19.2 7.7 14.9 16.1 16.3 16.1 20.7 7.7 19.2 7.7"/></g></g></g></svg>