<?xml version="1.0" encoding="UTF-8"?><svg viewBox="0 0 22 22" xmlns="http://www.w3.org/2000/svg"><!-- Generator: Adobe Illustrator 28.7.1, SVG Export Plug-In . SVG Version: 1.2.0 Build 142)  --><g><g><rect fill="#ccc" height="22" width="22" x="-115.3" y="2.3"/><rect fill="#ccc" height="22" width="22" x="-115.3" y="-22.2"/><rect fill="#ccc" height="22" width="22" x="-115.3" y="102.9"/><rect fill="#ccc" height="22" width="22" x="-115.3" y="77.6"/><rect fill="#ccc" height="22" width="22" x="-115.3" y="152.7"/><rect fill="#ccc" height="22" width="22" x="-115.3" y="127.9"/><rect fill="#ccc" height="22" width="22" x="-115.3" y="27.9"/><g><path d="m-109.6 43.6c0-.1-.1-.4-.2-.7-.5.6-1.2.8-1.9.8s-1.2-.2-1.6-.6-.6-.9-.6-1.4.3-1.3.8-1.6c.5-.4 1.3-.6 2.3-.6h1.1v-.5c0-.4-.1-.7-.4-1-.2-.2-.6-.4-1.1-.4s-.8.1-1 .3c-.3.2-.4.5-.4.8h-1.2c0-.3.1-.7.4-1s.6-.6 1-.8.9-.3 1.4-.3c.8 0 1.4.2 1.8.6s.7.9.7 1.6v3.1c0 .6 0 1.1.2 1.5 0 .1-1.2.1-1.2.1zm-1.9-.8c.4 0 .7 0 1-.3.3-.2.6-.4.7-.7v-1.4h-.9c-1.4 0-2.1.4-2.1 1.3s.1.6.4.9c.2.2.6.3.9.3z" stroke="#000" stroke-miterlimit="10" stroke-width=".2"/><rect height="13.4" width="7.3" x="-108" y="32.2"/><path d="m-102 37.7c-.5-.6-1.1-.9-1.9-.9s-1.5.3-1.9.9v-3.6h-1.2v9.6h1.1v-.8c.5.6 1.2.9 2 .9s1.4-.3 1.9-.9.7-1.5.7-2.5c0-1.2-.2-2-.7-2.7zm-.9 4.4c-.3.4-.7.6-1.3.6s-1.3-.4-1.7-1.1v-2.9c.3-.7.9-1.1 1.7-1.1s1 .2 1.3.6.5 1 .5 1.8-.2 1.5-.5 1.9z" fill="#ccc" stroke="#ccc" stroke-miterlimit="10" stroke-width=".2"/><path d="m-97.4 42.8c.4 0 .8-.1 1.1-.4s.5-.6.5-.9h1.1c0 .4-.2.8-.4 1.1-.2.4-.6.6-1 .8s-.8.3-1.3.3c-.9 0-1.7-.3-2.2-.9s-.8-1.5-.8-2.5v-.2c0-.7.1-1.3.4-1.8.2-.5.6-.9 1-1.2s1-.4 1.6-.4 1.4.2 1.9.7.8 1 .8 1.8h-1.1c0-.4-.2-.8-.5-1.1s-.7-.4-1.1-.4-1 .2-1.4.6c-.3.4-.5 1-.5 1.8v.2c0 .8.2 1.4.5 1.8s.8.6 1.4.6z" stroke="#000" stroke-miterlimit="10" stroke-width=".2"/></g><path d="m-102.4 6.6 1.7.7-1 2.3h3.8v1.8h-4.5l-1.5 3.6h6.1v1.8h-6.9l-1.3 3.1-1.7-.7 1-2.3h-3.8v-1.8h4.6l1.5-3.6h-6.1v-1.8h6.9l1.3-3.1z" stroke="#000" stroke-miterlimit="10" stroke-width=".2"/><rect fill="#ccc" height="22" width="22" x="-115.3" y="77.6"/><g><rect height="13.4" width="14.2" x="-114.6" y="81.9"/><path d="m-109.4 93.2c0-.1-.1-.4-.2-.7-.5.6-1.2.8-1.9.8s-1.2-.2-1.6-.6-.6-.9-.6-1.4.3-1.3.8-1.6c.5-.4 1.3-.6 2.3-.6h1.1v-.5c0-.4-.1-.7-.4-1-.2-.2-.6-.4-1.1-.4s-.8.1-1 .3c-.3.2-.4.5-.4.8h-1.2c0-.3.1-.7.4-1s.6-.6 1-.8.9-.3 1.4-.3c.8 0 1.4.2 1.8.6s.7.9.7 1.6v3.1c0 .6 0 1.1.2 1.5 0 .1-1.2.1-1.2.1zm-1.9-.9c.4 0 .7 0 1-.3.3-.2.6-.4.7-.7v-1.4h-.9c-1.4 0-2.1.4-2.1 1.3s.1.6.4.9c.2.2.6.3.9.3z" fill="#ccc" stroke="#ccc" stroke-miterlimit="10" stroke-width=".2"/><path d="m-101.8 87.2c-.5-.6-1.1-.9-1.9-.9s-1.5.3-1.9.9v-3.6h-1.2v9.6h1.1v-.8c.5.6 1.2.9 2 .9s1.4-.3 1.9-.9.7-1.5.7-2.5c0-1.2-.2-2-.7-2.7zm-1 4.5c-.3.4-.7.6-1.3.6s-1.3-.4-1.7-1.1v-2.9c.3-.7.9-1.1 1.7-1.1s1 .2 1.3.6.5 1 .5 1.8-.2 1.5-.5 1.9z" fill="#ccc" stroke="#ccc" stroke-miterlimit="10" stroke-width=".2"/><path d="m-96.8 92.4c.4 0 .8-.1 1.1-.4s.5-.6.5-.9h1.1c0 .4-.2.8-.4 1.1-.2.4-.6.6-1 .8s-.8.3-1.3.3c-.9 0-1.7-.3-2.2-.9s-.8-1.5-.8-2.5v-.2c0-.7.1-1.3.4-1.8.2-.5.6-.9 1-1.2s1-.4 1.6-.4 1.4.2 1.9.7.8 1 .8 1.8h-1.1c0-.4-.2-.8-.5-1.1s-.7-.4-1.1-.4-1 .2-1.4.6c-.3.4-.5 1-.5 1.8v.2c0 .8.2 1.4.5 1.8s.8.6 1.4.6z" stroke="#000" stroke-miterlimit="10" stroke-width=".2"/></g><path d="m-109.8 143.2c0-.1-.1-.4-.2-.7-.5.6-1.2.8-1.9.8s-1.2-.2-1.6-.6-.6-.9-.6-1.4.3-1.3.8-1.6c.5-.4 1.3-.6 2.3-.6h1.1v-.5c0-.4-.1-.7-.4-1-.2-.2-.6-.4-1.1-.4s-.8.1-1 .3c-.3.2-.4.5-.4.8h-1.2c0-.3.1-.7.4-1s.6-.6 1-.8.9-.3 1.4-.3c.8 0 1.4.2 1.8.6s.7.9.7 1.6v3.1c0 .6 0 1.1.2 1.5 0 .1-1.2.1-1.2.1zm-1.9-.9c.4 0 .7 0 1-.3.3-.2.6-.4.7-.7v-1.4h-.9c-1.4 0-2.1.4-2.1 1.3s.1.6.4.9c.2.2.6.3.9.3z" stroke="#000" stroke-miterlimit="10" stroke-width=".2"/><path d="m-102.1 137.2c-.5-.6-1.1-.9-1.9-.9s-1.5.3-1.9.9v-3.6h-1.2v9.6h1.1v-.8c.5.6 1.2.9 2 .9s1.4-.3 1.9-.9.7-1.5.7-2.5c0-1.2-.2-2-.7-2.7zm-1 4.5c-.3.4-.7.6-1.3.6s-1.3-.4-1.7-1.1v-2.9c.3-.7.9-1.1 1.7-1.1s1 .2 1.3.6.5 1 .5 1.8-.2 1.5-.5 1.9z" stroke="#000" stroke-miterlimit="10" stroke-width=".2"/><path d="m-97.6 142.4c.4 0 .8-.1 1.1-.4s.5-.6.5-.9h1.1c0 .4-.2.8-.4 1.1-.2.4-.6.6-1 .8s-.8.3-1.3.3c-.9 0-1.7-.3-2.2-.9s-.8-1.5-.8-2.5v-.2c0-.7.1-1.3.4-1.8.2-.5.6-.9 1-1.2s1-.4 1.6-.4 1.4.2 1.9.7.8 1 .8 1.8h-1.1c0-.4-.2-.8-.5-1.1s-.7-.4-1.1-.4-1 .2-1.4.6c-.3.4-.5 1-.5 1.8v.2c0 .8.2 1.4.5 1.8s.8.6 1.4.6z" stroke="#000" stroke-miterlimit="10" stroke-width=".2"/><rect height="2.2" width="13.1" x="-110.8" y="-15"/><rect height="2.2" width="13.1" x="-110.8" y="-9.6"/><rect height="2.5" width="13.4" x="-111" y="162.8"/><g><path d="m-111.7 110.1c-.1-.3-.3-.5-.5-.6-.2-.2-.5-.2-.9-.2s-.6 0-.9.2c-.2.2-.4.4-.6.6-.1.3-.2.5-.2.8v.4c0 .3 0 .6.2.8.1.3.3.5.6.6.2.2.5.2.9.2s.6 0 .9-.2c.2-.2.4-.4.5-.6s.2-.5.2-.8v-.4c0-.3 0-.6-.2-.8zm-.7 1.3c0 .2 0 .4-.2.6s-.3.3-.6.3-.5 0-.6-.3-.2-.4-.2-.6v-.4c0-.2 0-.4.2-.6.1-.2.3-.3.6-.3s.5 0 .6.3c.1.2.2.4.2.6z" stroke="#000" stroke-miterlimit="10" stroke-width=".2"/><path d="m-107.6 114.7c-.1-.3-.3-.5-.5-.6-.2-.2-.5-.2-.9-.2s-.6 0-.9.2-.4.4-.6.6c-.1.3-.2.5-.2.8v.4c0 .3 0 .6.2.8.1.3.3.5.6.6.2.2.5.2.9.2s.6 0 .9-.2l.6-.6c.1-.3.2-.5.2-.8v-.4c0-.3 0-.6-.2-.8zm-.7 1.3c0 .2 0 .4-.2.6-.1.2-.3.3-.6.3s-.5 0-.6-.3c-.1-.2-.2-.4-.2-.6v-.4c0-.2 0-.4.2-.6.1-.2.3-.3.6-.3s.5 0 .6.3c.1.2.2.4.2.6z" stroke="#000" stroke-miterlimit="10" stroke-width=".2"/><path d="m-104.6 117.6c-.4 0-.7 0-1-.2-.3-.1-.6-.3-.7-.6-.2-.3-.3-.6-.3-1s0-.6.2-.8c.1-.2.3-.4.5-.5s.5-.2.7-.3.6-.1.8-.1c.4 0 .7 0 .9-.1.2 0 .4 0 .5-.1.1 0 .2-.2.2-.3 0-.4 0-.6-.3-.8-.2-.2-.5-.3-.9-.3s-.7 0-.9.3c-.2.2-.4.4-.5.6l-1.1-.3c.1-.4.3-.7.6-.9s.5-.4.9-.5c.3-.1.7-.2 1-.2s.5 0 .8 0 .5.2.8.3.4.4.6.6c.2.3.2.6.2 1.1v4h-1.1v-.8c0 .2-.2.3-.3.4-.2.1-.3.3-.6.4-.2 0-.5.1-.9.1zm.3-.9c.3 0 .6 0 .8-.2s.4-.3.5-.5.2-.4.2-.7v-.8s-.1 0-.2.1c-.1 0-.3 0-.4 0-.2 0-.3 0-.4 0s-.3 0-.4 0c-.2 0-.4 0-.6.1-.2 0-.3.2-.4.3s-.2.3-.2.5.1.5.3.7.5.2.8.2z" stroke="#000" stroke-miterlimit="10" stroke-width=".2"/><polygon points="-109.6 109.4 -113.8 117.5 -112.7 117.5 -108.5 109.4 -109.6 109.4" stroke="#000" stroke-miterlimit="10" stroke-width=".2"/><path d="m-98.1 110c-.1-.3-.3-.5-.5-.6-.2-.2-.5-.2-.9-.2s-.6 0-.9.2c-.2.2-.4.4-.6.6-.1.3-.2.5-.2.8v.4c0 .3 0 .6.2.8.1.3.3.5.6.6.2.2.5.2.9.2s.6 0 .9-.2c.2-.2.4-.4.5-.6s.2-.5.2-.8v-.4c0-.3 0-.6-.2-.8zm-.7 1.3c0 .2 0 .4-.2.6s-.3.3-.6.3-.5 0-.6-.3-.2-.4-.2-.6v-.4c0-.2 0-.4.2-.6.1-.2.3-.3.6-.3s.5 0 .6.3c.1.2.2.4.2.6z" stroke="#000" stroke-miterlimit="10" stroke-width=".2"/><path d="m-94 114.6c-.1-.3-.3-.5-.5-.6-.2-.2-.5-.2-.9-.2s-.6 0-.9.2-.4.4-.6.6c-.1.3-.2.5-.2.8v.4c0 .3 0 .6.2.8.1.3.3.5.6.6.2.2.5.2.9.2s.6 0 .9-.2l.6-.6c.1-.3.2-.5.2-.8v-.4c0-.3 0-.6-.2-.8zm-.8 1.3c0 .2 0 .4-.2.6-.1.2-.3.3-.6.3s-.5 0-.6-.3c-.1-.2-.2-.4-.2-.6v-.4c0-.2 0-.4.2-.6.1-.2.3-.3.6-.3s.5 0 .6.3c.1.2.2.4.2.6z" stroke="#000" stroke-miterlimit="10" stroke-width=".2"/><polygon points="-96 109.3 -100.2 117.5 -99.1 117.5 -94.9 109.3 -96 109.3" stroke="#000" stroke-miterlimit="10" stroke-width=".2"/></g><rect fill="#ccc" height="22" width="22" x="-114.7" y="53.1"/><rect height="1.1" width="21.9" x="-114.6" y="64.9"/><g><path d="m-108.9 68.8c0-.1-.1-.4-.2-.7-.5.6-1.2.8-1.9.8s-1.2-.2-1.6-.6-.6-.9-.6-1.4.3-1.3.8-1.6c.5-.4 1.3-.6 2.3-.6h1.1v-.5c0-.4-.1-.7-.4-1-.2-.2-.6-.4-1.1-.4s-.8.1-1 .3c-.3.2-.4.5-.4.8h-1.2c0-.3.1-.7.4-1s.6-.6 1-.8.9-.3 1.4-.3c.8 0 1.4.2 1.8.6s.7.9.7 1.6v3.1c0 .6 0 1.1.2 1.5 0 .1-1.2.1-1.2.1zm-2-.9c.4 0 .7 0 1-.3.3-.2.6-.4.7-.7v-1.4h-.9c-1.4 0-2.1.4-2.1 1.3s.1.6.4.9c.2.2.6.3.9.3z" stroke="#000" stroke-miterlimit="10" stroke-width=".2"/><path d="m-101.4 62.8c-.5-.6-1.1-.9-1.9-.9s-1.5.3-1.9.9v-3.6h-1.2v9.6h1.1v-.8c.5.6 1.2.9 2 .9s1.4-.3 1.9-.9.7-1.5.7-2.5c0-1.2-.2-2-.7-2.7zm-.9 4.5c-.3.4-.7.6-1.3.6s-1.3-.4-1.7-1.1v-2.9c.3-.7.9-1.1 1.7-1.1s1 .2 1.3.6.5 1 .5 1.8-.2 1.5-.5 1.9z" stroke="#000" stroke-miterlimit="10" stroke-width=".2"/><path d="m-96.7 68c.4 0 .8-.1 1.1-.4s.5-.6.5-.9h1.1c0 .4-.2.8-.4 1.1-.2.4-.6.6-1 .8s-.8.3-1.3.3c-.9 0-1.7-.3-2.2-.9s-.8-1.5-.8-2.5v-.2c0-.7.1-1.3.4-1.8.2-.5.6-.9 1-1.2s1-.4 1.6-.4 1.4.2 1.9.7.8 1 .8 1.8h-1.1c0-.4-.2-.8-.5-1.1s-.7-.4-1.1-.4-1 .2-1.4.6c-.3.4-.5 1-.5 1.8v.2c0 .8.2 1.4.5 1.8s.8.6 1.4.6z" stroke="#000" stroke-miterlimit="10" stroke-width=".2"/></g><rect fill="#ccc" height="22" width="22" x="-40.1" y="49.6"/><rect fill="#ccc" height="22" width="22" x="-40.1" y="149.5"/><rect fill="#ccc" height="22" width="22" x="-40.1" y="124.7"/><rect fill="#ccc" height="22" width="22" x="-40.1" y="24.7"/><rect fill="#ccc" height="22" width="22" x="-40.1" y="74.4"/><g><path d="m-34.6 154.8v9.5h-1.3v-8l-2 1.5v-1.4l2.1-1.5h1.3z" stroke="#000" stroke-miterlimit="10" stroke-width=".2"/><path d="m-32.9 164.3v-1l2.9-3.3c.3-.4.6-.7.8-.9.2-.3.4-.5.5-.8s.1-.5.1-.8 0-.6-.2-.8c-.1-.2-.3-.4-.5-.5s-.5-.2-.8-.2-.6 0-.8.2-.4.3-.5.6-.2.5-.2.9h-1.2c0-.6.1-1.1.4-1.5.2-.4.6-.8 1-1s.9-.4 1.4-.4 1 .1 1.4.4c.4.2.7.6 1 1 .2.4.3.9.3 1.4s0 .7-.2 1c-.1.3-.3.7-.6 1.1s-.7.9-1.2 1.5l-1.7 2h3.8v1.2h-5.6z" stroke="#000" stroke-miterlimit="10" stroke-width=".2"/><path d="m-23.4 164.4c-.6 0-1.1-.1-1.5-.3s-.8-.5-1.1-.9-.4-.8-.4-1.4h1.3c0 .3.1.5.3.7s.4.4.6.5.5.2.8.2.6 0 .9-.2c.3-.1.5-.3.6-.5s.2-.5.2-.8 0-.6-.2-.8c-.1-.2-.4-.4-.6-.6s-.6-.2-1-.2h-.7v-1.2h.7c.3 0 .6 0 .8-.2.2-.1.4-.3.6-.5.1-.2.2-.5.2-.8s0-.5-.2-.8c-.1-.2-.3-.4-.5-.5s-.5-.2-.8-.2-.5 0-.8.2-.4.3-.6.5c-.1.2-.2.5-.2.7h-1.2c0-.5.1-1 .4-1.3.3-.4.6-.7 1-.9s.9-.3 1.4-.3 1 .1 1.4.4c.4.2.7.5.9.9s.3.8.3 1.3-.1 1-.4 1.3c-.3.4-.6.6-1.1.7.6.2 1 .4 1.3.8s.5.9.5 1.5c0 .5-.1 1-.4 1.4s-.6.7-1.1 1c-.5.2-1 .4-1.5.4z" stroke="#000" stroke-miterlimit="10" stroke-width=".2"/></g><polygon points="-25 30.5 -33.9 35.7 -25 40.8 -24.4 39.7 -31.3 35.7 -24.4 31.6 -25 30.5" stroke="#000" stroke-miterlimit="10" stroke-width=".8"/><polygon points="-33.2 55.7 -33.9 56.8 -27 60.9 -33.9 64.9 -33.2 66 -24.4 60.9 -33.2 55.7" stroke="#000" stroke-miterlimit="10" stroke-width=".8"/><path d="m-25 78.1-9.4 5.5 9.4 5.5.7-1.2-7.3-4.3 7.3-4.3zm-9.4 12.3v1.4h10.4v-1.4z" stroke="#000" stroke-miterlimit="10" stroke-width=".8"/><path d="m-23.6 133.5v2.2h-11.2v-2.2h-1.1v5.6h1.1v-2.2h11.2v2.2h1.1v-5.6z" stroke="#000" stroke-miterlimit="10"/><rect fill="#ccc" height="22" width="22" x="-40.1" y=".5"/><rect fill="#ccc" height="22" width="22" x="-40.1" y="-24"/><rect fill="#ccc" height="22" width="22" x="-40.1" y="173.9"/><path d="m-27.3 4.8 1.7.7-1 2.3h3.8v1.8h-4.5l-1.5 3.6h6.1v1.8h-6.9l-1.3 3.1-1.7-.7 1-2.3h-3.8v-1.8h4.6l1.5-3.6h-6.1v-1.8h6.9l1.3-3.1z" stroke="#000" stroke-miterlimit="10" stroke-width=".2"/><rect height="2.2" width="13.1" x="-35.7" y="-16.8"/><rect height="2.2" width="13.1" x="-35.7" y="-11.4"/><g><polygon points="5.5 5.2 6.7 3.2 16.7 9.1 6.7 14.9 5.5 12.9 12.2 9.1 5.5 5.2"/><rect height="2.3" width="11.2" x="5.4" y="16.3"/></g></g></g></svg>