<svg enable-background="new 0 0 48 48" viewBox="14 15.01 18.96 18.99" xmlns="http://www.w3.org/2000/svg"><g><path d="m32 26.24v3.76c0 2.206-1.795 4-4 4h-10c-2.205 0-4-1.794-4-4v-10c0-2.206 1.795-4 4-4h3.76l2 2h-6.76c-.55 0-1 .45-1 1v12c0 .55.45 1 1 1h12c.55 0 1-.45 1-1v-6.76zm.434-11.23-6.928-.002c-.315.031-.411.176-.187.398l2.012 2.014-7.115 7.115c-.226.225-.225.59 0 .814l2.441 2.441c.226.225.589.225.815 0l7.115-7.115 2.012 2.012c.225.225.331-.017.358-.33l-.002-6.828c.028-.314-.207-.548-.521-.519z"/></g></svg>