<svg enable-background="new 0 0 48 48" viewBox="12 13 24 22" xmlns="http://www.w3.org/2000/svg"><g><path d="m20.573 20.933c.381.377.99.387 1.384.023l6.723-6.222c.301-.28.4-.714.251-1.099-.15-.383-.52-.635-.931-.635h-13c-.405 0-.771.245-.925.619-.051.124-.075.253-.075.381 0 .262.103.519.296.71zm4.874-5.933-4.146 3.837-3.871-3.837zm3.233 18.266c.301.279.401.716.251 1.099s-.52.635-.931.635h-13c-.405 0-.771-.245-.925-.619-.051-.124-.075-.253-.075-.381 0-.262.103-.519.296-.71l6.277-6.222c.381-.377.99-.387 1.384-.023zm7.191-4.266h-3.621c-.138 0-.25-.112-.25-.25v-3.621c0-.142.082-.176.183-.075l1.33 1.33c.471-.68.759-1.493.759-2.383 0-1.922-1.28-3.541-3.03-4.075-.133-.041-.242-.178-.242-.317v-1.038c0-.138.109-.231.244-.202 2.589.569 4.527 2.871 4.527 5.63 0 1.306-.441 2.504-1.172 3.47l1.347 1.347c.101.102.067.184-.075.184zm-5.871-4.5c0 .276-.224.5-.5.5h-1c-.276 0-.5-.224-.5-.5v-1c0-.276.224-.5.5-.5h1c.276 0 .5.224.5.5zm-9.5-1.5h1c.276 0 .5.224.5.5v1c0 .276-.224.5-.5.5h-1c-.276 0-.5-.224-.5-.5v-1c0-.276.224-.5.5-.5zm3.5 1.5v-1c0-.276.224-.5.5-.5h1c.276 0 .5.224.5.5v1c0 .276-.224.5-.5.5h-1c-.276 0-.5-.224-.5-.5zm-10.5.5h-1c-.276 0-.5-.224-.5-.5v-1c0-.276.224-.5.5-.5h1c.276 0 .5.224.5.5v1c0 .276-.224.5-.5.5zm2.5-.5v-1c0-.276.224-.5.5-.5h1c.276 0 .5.224.5.5v1c0 .276-.224.5-.5.5h-1c-.276 0-.5-.224-.5-.5z"/></g></svg>