<svg enable-background="new 0 0 48 48" viewBox="11.75 11.75 24.5 24.5" xmlns="http://www.w3.org/2000/svg"><g><path d="m24 11.75c-6.765 0-12.25 5.484-12.25 12.25s5.485 12.25 12.25 12.25 12.25-5.484 12.25-12.25-5.485-12.25-12.25-12.25zm-1 5.75c0-.275.225-.5.5-.5h2c.275 0 .5.225.5.5v2c0 .275-.225.5-.5.5h-2c-.275 0-.5-.225-.5-.5zm5 13c0 .275-.225.5-.5.5h-6c-.275 0-.5-.225-.5-.5v-2c0-.275.225-.5.5-.5h1.5v-4h-1.5c-.275 0-.5-.225-.5-.5v-2c0-.275.225-.5.5-.5h4c.275 0 .5.225.5.5v6.5h1.5c.275 0 .5.225.5.5z"/></g></svg>