<svg enable-background="new 0 0 48 48" viewBox="12.43 12.42 23.15 23.16" xmlns="http://www.w3.org/2000/svg"><g><path d="m24 12.417c-4.514 0-8.713 2.715-10.567 6.831-1.877 4.17-1.068 9.192 2.015 12.565 3.08 3.37 7.993 4.63 12.315 3.146 4.246-1.457 7.34-5.373 7.767-9.843.641-6.712-4.783-12.699-11.53-12.699zm-4.191 5.024c.319-.93 2.039.542 1.117 1.35-.221.194-1.42.162-1.165-.117.102-.111.258-.112.359-.252.263-.364-.147-.694-.311-.981zm8.168 12.922c-.031.369-.289 1.285-.792 1.285-.365 0-.361-.514-.324-.764.134-.894.514-1.061 1-1.732.336.285.147.837.116 1.211zm1.146-6.37c-.439.469-1.095 1.211-1.814 1.208-.489-.002-.536-1.513-1.126-1.793-.3-.143-.718.196-.476.49.264.319.261.751.598 1.027.583.477 1.106 1.027 1.867.441-.077.893-.754 1.4-1.279 2.045-.295.363-.531.77-.436 1.255.08.408.374.961.045 1.334-.217.247-.706.385-.724.773.055.146.077.296.065.45-.103.215-.327.357-.442.577-.219.422-.675 1.242-1.165 1.401-.24.078-.857.282-1.045.045-.499-.628-.325-2.09-.617-2.824-.193-.485.17-.724.177-1.176.005-.346-.233-.637-.395-.922-.208-.365-.165-.61-.15-1.007.013-.376-.35-.189-.554-.308-.229-.133-.254-.431-.579-.227-.28.172-1.142.317-1.462.262-.464-.08-1.028-1.08-1.146-1.495-.109-.389.187-.762.078-1.088-.115-.343-.015-.658.211-.927.345-.408.759-1.094 1.203-1.36.316-.19.728-.006 1.103-.108.336-.091.834-.211 1.19-.13.372.084-.047.452.199.588.287.158.494.299.764.471.278.176.381-.319.582-.368.243-.059.576-.094.823-.044.479.101 1.458-.229.978-.94-.169-.249-.624-.322-.88-.429-.317-.132-.127-.671-.554-.65-.319.079.118.412.01.598-.197.339-.569-.376-.62-.468-.059-.107-.757-1.071-.978-.862-.075.071 1.173 1.492.225 1.215-.003-.375-.39-.413-.594-.662-.284-.347-.512-.192-.828.084-.309.271-.758.647-1.131.826-.814.391-.686-.448-.664-.936.015-.326.498-.174.672-.25.529-.233.011-.48-.125-.703.155-.233 1.094-.509 1.359-.578.594-.158 1.093-.646 1.82-.285.095.045 1.007-.524.356-.687-.722-.43-.754.194-1.301.362-.005-.604-1.482-.658-.928-1.467.453-.66.82-.752 2.101-.846.937-.062 1.39-.031 1.593.141s.265.79-.223.851c.091.807.936.062 1.258-.146.532-.341 1.657-.131 1.808-.253s-.101-.469.032-.688c.125-.207.441-.102.483.109.574.092.845-.334 1.454.071 1.841 1.226 3.267 2.99 3.994 5.846.326 1.281.387 2.713.013 2.609-.251-.069-.13-.629-.297-.789-.433.101-1.163.822-1.352 1.221-.118.249.115 1.214-.402 1.214-.209 0-.312-.771-.343-.901-.089-.379-.158-.782-.324-1.138-.189-.407-.361-.15-.659-.209-.384-.076-.295-.591-.837-.637-.502-.04-.676.356-.611.787z"/></g></svg>