<svg enable-background="new 0 0 48 48" viewBox="12 14 24 21" xmlns="http://www.w3.org/2000/svg"><g><path clip-rule="evenodd" d="m36 28.5c0 .275-.225.5-.5.5h-18c-.275 0-.5-.225-.5-.5v-2c0-.275.225-.5.5-.5h18c.275 0 .5.225.5.5zm-21-2c0-.275-.225-.5-.5-.5h-2c-.275 0-.5.225-.5.5v2c0 .275.225.5.5.5h2c.275 0 .5-.225.5-.5zm21 6c0-.275-.225-.5-.5-.5h-18c-.275 0-.5.225-.5.5v2c0 .275.225.5.5.5h18c.275 0 .5-.225.5-.5zm-21 0c0-.275-.225-.5-.5-.5h-2c-.275 0-.5.225-.5.5v2c0 .275.225.5.5.5h2c.275 0 .5-.225.5-.5zm21-12c0-.275-.225-.5-.5-.5h-18c-.275 0-.5.225-.5.5v2c0 .275.225.5.5.5h18c.275 0 .5-.225.5-.5zm-21 0c0-.275-.225-.5-.5-.5h-2c-.275 0-.5.225-.5.5v2c0 .275.225.5.5.5h2c.275 0 .5-.225.5-.5zm21-6c0-.275-.225-.5-.5-.5h-18c-.275 0-.5.225-.5.5v2c0 .275.225.5.5.5h18c.275 0 .5-.225.5-.5zm-21 0c0-.275-.225-.5-.5-.5h-2c-.275 0-.5.225-.5.5v2c0 .275.225.5.5.5h2c.275 0 .5-.225.5-.5z" fill-rule="evenodd"/></g></svg>