<svg enable-background="new 0 0 48 48" viewBox="13 10 21 26" xmlns="http://www.w3.org/2000/svg"><g><path d="m33.338 21h-1.338v-5.002c0-3.083-2.893-5.998-5.947-5.998h-5.105c-3.055 0-5.948 2.915-5.948 5.998v5.002h-1.338c-.365 0-.662.263-.662.587v13.826c0 .324.297.587.662.587h19.676c.365 0 .662-.263.662-.587v-13.826c0-.324-.297-.587-.662-.587zm-14.338-5.002c0-1.4.628-1.998 2-1.998h5c1.372 0 2 .598 2 1.998v5.002h-9zm5.5 12.433v2.569c0 .275-.225.5-.5.5h-1c-.275 0-.5-.225-.5-.5v-2.569c-.596-.347-1-.984-1-1.723 0-1.104.895-1.999 2-1.999 1.104 0 2 .895 2 1.999 0 .738-.404 1.376-1 1.723z"/></g></svg>