<svg enable-background="new 0 0 48 48" viewBox="13.5 12 21 23.5" xmlns="http://www.w3.org/2000/svg"><g><g><path d="m26 20.999c0 .551-.45 1.001-1 1.001h-2c-.55 0-1-.45-1-1.001v-7.998c0-.551.45-1.001 1-1.001h2c.55 0 1 .45 1 1.001zm3.291-5.061c-.588-.344-1.291-.485-1.291.328v1.834c0 .715.475.888.697 1.066 1.706 1.375 2.803 3.477 2.803 5.834 0 4.136-3.364 7.5-7.5 7.5s-7.5-3.364-7.5-7.5c0-2.37 1.107-4.48 2.831-5.856.214-.171.669-.238.669-1.053 0-.512 0-1.255 0-1.763 0-.844-.609-.828-1.373-.342-3.067 1.835-5.127 5.187-5.127 9.014 0 5.79 4.711 10.5 10.5 10.5s10.5-4.71 10.5-10.5c0-3.861-2.096-7.239-5.209-9.062z"/></g></g></svg>