<svg enable-background="new 0 0 48 48" viewBox="14 14 20 20" xmlns="http://www.w3.org/2000/svg"><g><path d="m33.5 22h-4.653l3.016-3.016c.196-.197.196-.52 0-.716l-2.118-2.118c-.196-.196-.519-.196-.716 0l-3.029 3.029v-4.679c0-.275-.225-.5-.5-.5h-3c-.275 0-.5.225-.5.5v4.665l-3.019-3.018c-.197-.196-.519-.196-.716 0l-2.118 2.119c-.197.195-.197.518 0 .716l3.018 3.018h-4.665c-.275 0-.5.225-.5.5v3c0 .275.225.5.5.5h4.679l-3.029 3.029c-.195.195-.195.519 0 .716l2.118 2.118c.197.195.52.195.716 0l3.016-3.016v4.653c0 .275.225.5.5.5h3c.275 0 .5-.225.5-.5v-4.665l3.025 3.025c.196.196.519.196.716 0l2.119-2.119c.195-.195.195-.518 0-.716l-3.025-3.025h4.665c.275 0 .5-.225.5-.5v-3c0-.275-.225-.5-.5-.5z"/></g></svg>