<svg enable-background="new 0 0 48 48" viewBox="13 13 22 22" xmlns="http://www.w3.org/2000/svg"><g><path clip-rule="evenodd" d="m29.5 35c-.275 0-.5-.225-.5-.5v-5c0-.275.225-.5.5-.5h5c.275 0 .5.225.5.5v5c0 .275-.225.5-.5.5zm-8 0c-.275 0-.5-.225-.5-.5v-5c0-.275.225-.5.5-.5h5c.275 0 .5.225.5.5v5c0 .275-.225.5-.5.5zm-8 0c-.275 0-.5-.225-.5-.5v-5c0-.275.225-.5.5-.5h5c.275 0 .5.225.5.5v5c0 .275-.225.5-.5.5zm16-8c-.275 0-.5-.225-.5-.5v-5c0-.275.225-.5.5-.5h5c.275 0 .5.225.5.5v5c0 .275-.225.5-.5.5zm-8 0c-.275 0-.5-.225-.5-.5v-5c0-.275.225-.5.5-.5h5c.275 0 .5.225.5.5v5c0 .275-.225.5-.5.5zm-8 0c-.275 0-.5-.225-.5-.5v-5c0-.275.225-.5.5-.5h5c.275 0 .5.225.5.5v5c0 .275-.225.5-.5.5zm16-8c-.275 0-.5-.225-.5-.5v-5c0-.275.225-.5.5-.5h5c.275 0 .5.225.5.5v5c0 .275-.225.5-.5.5zm-8 0c-.275 0-.5-.225-.5-.5v-5c0-.275.225-.5.5-.5h5c.275 0 .5.225.5.5v5c0 .275-.225.5-.5.5zm-8 0c-.275 0-.5-.225-.5-.5v-5c0-.275.225-.5.5-.5h5c.275 0 .5.225.5.5v5c0 .275-.225.5-.5.5z" fill-rule="evenodd"/></g></svg>