<svg enable-background="new 0 0 48 48" viewBox="11.9 11.4 25.2 24.5" xmlns="http://www.w3.org/2000/svg"><g><path d="m15.4 32.9v-1.5-15.7h-2.9c-.3 0-.6.2-.6.5v19.2c0 .3.3.5.6.5h18.7c.3 0 .6-.2.6-.5v-2.5h-15.8z"/><path d="m36.5 11.4h-18.7c-.3 0-.6.2-.6.5v19.3h19.3c.3 0 .6-.2.6-.5v-18.8c0-.3-.3-.5-.6-.5zm-2.7 10.8c0 .2-.2.4-.4.4h-3.9v3.9c0 .2-.2.4-.4.4h-2.6c-.2 0-.4-.2-.4-.4v-3.9h-3.9c-.2 0-.4-.2-.4-.4v-2.6c0-.2.2-.4.4-.4h3.8v-3.9c0-.2.2-.4.4-.4h2.6c.2 0 .4.2.4.4v3.9h3.9c.2 0 .4.2.4.4v2.6z"/></g></svg>