<svg enable-background="new 0 0 48 48" viewBox="15 12.13 23.87 20.87" xmlns="http://www.w3.org/2000/svg"><g><path d="m31 25.656v4.344c0 .55-.45 1-1 1h-12c-.55 0-1-.45-1-1v-12c0-.55.45-1 1-1h10.344l1.809-1.811c-.368-.111-.749-.189-1.153-.189h-10c-2.205 0-4 1.794-4 4v10c0 2.206 1.795 4 4 4h10c2.205 0 4-1.794 4-4v-5.343z"/><path d="m38.717 14.451-2.168-2.169c-.199-.198-.524-.198-.725 0l-1.445 1.446 2.893 2.893 1.445-1.445c.199-.2.199-.526 0-.725z"/><path d="m26.333 27.459-2.792-2.833-1.632 4.172c-.101.263.03.394.294.293z"/><rect height="12.869" transform="matrix(.7071 .7071 -.7071 .7071 23.47 -15.4649)" width="4.091" x="28.357" y="14.163"/></g></svg>