<svg enable-background="new 0 0 48 48" viewBox="12.79 12 22.42 23.83" xmlns="http://www.w3.org/2000/svg"><g><path d="m21.356 33.995c.403 1.071 1.431 1.838 2.644 1.838s2.238-.767 2.643-1.837c-.836.064-1.717.104-2.643.104-.927 0-1.807-.041-2.644-.105z"/><path d="m34.209 29h-.375l-2.5-3-1.334-7h-.013c-.406-2.45-2.28-4.393-4.687-4.921.004-.01.013-.019.016-.028l.367-1.102c.174-.522-.133-.949-.683-.949h-2c-.55 0-.857.427-.684.949l.367 1.102c.003.01.012.018.016.028-2.406.528-4.28 2.471-4.686 4.921h-.013l-1.334 7-2.5 3h-.375c-.55 0-1 .45-1 1s.42 1.161.934 1.358c0 0 4.275 1.642 10.275 1.642s10.275-1.642 10.275-1.642c.514-.197.934-.809.934-1.358s-.45-1-1-1z"/></g></svg>