<svg enable-background="new 0 0 48 48" viewBox="12.2 15.2 23.6 17.6" xmlns="http://www.w3.org/2000/svg"><g><path d="m35.8 25.5v2c0 2.923-2.377 5.3-5.3 5.3h-6c-2.922 0-5.3-2.377-5.3-5.3v-2c0-2.923 2.377-5.3 5.3-5.3h.367c.022.096.033.197.033.3v2c0 .103-.012.203-.033.3h-.367c-1.489 0-2.7 1.211-2.7 2.7v2c0 1.489 1.211 2.7 2.7 2.7h6c1.489 0 2.7-1.211 2.7-2.7v-2c0-1.489-1.211-2.7-2.7-2.7h-.414c.005-.1.014-.199.014-.3v-2c0-.101-.009-.2-.014-.3h.414c2.922 0 5.3 2.377 5.3 5.3zm-12.3-10.3h-6c-2.922 0-5.3 2.377-5.3 5.3v2c0 2.923 2.377 5.3 5.3 5.3h.416c-.005-.1-.015-.199-.015-.3v-2c0-.101.011-.2.015-.3h-.416c-1.489 0-2.7-1.211-2.7-2.7v-2c0-1.489 1.211-2.7 2.7-2.7h6c1.489 0 2.7 1.211 2.7 2.7v2c0 1.489-1.211 2.7-2.7 2.7h-.366c-.021.097-.034.197-.034.3v2c0 .103.013.203.034.3h.366c2.922 0 5.3-2.377 5.3-5.3v-2c0-2.923-2.378-5.3-5.3-5.3z"/></g></svg>