<svg enable-background="new 0 0 48 48" viewBox="9.39 12 29.74 24" xmlns="http://www.w3.org/2000/svg"><g><path d="m30.136 21.802c.063.342.104.691.104 1.053 0 1.951-.937 3.681-2.383 4.773l-1.544 3.949c6.945-1.102 12.814-7.284 12.814-7.284s-2.456-4.301-7.258-6.923zm-.227 6.76c1.469-1.455 2.381-3.474 2.381-5.707 0-.517-.054-1.021-.146-1.511 2.108 1.006 3.771 2.176 4.615 2.949-1.124 1.032-3.691 2.996-6.85 4.269z"/><path d="m30.051 12-1.621 4.044c-1.279-.353-2.665-.614-4.171-.614-9.844 0-14.868 8.884-14.868 8.884s5.924 6.306 12.911 7.364l-1.665 4.322h2.515l9.386-24zm-6.661 12.657-.734.734c-.538-.342-.941-.859-1.178-1.459l.814-.812c.091.676.505 1.25 1.098 1.537zm-11.195-.366c.809-.743 2.275-1.851 4.161-2.83-.08.453-.129.917-.129 1.394 0 2.181.871 4.154 2.28 5.602-2.917-1.274-5.215-3.161-6.312-4.166zm11.209 4.477c-2.898-.415-5.127-2.9-5.127-5.913 0-.881.195-1.714.537-2.466.998-.36 2.059-.656 3.175-.832-1.048.723-1.737 1.93-1.737 3.298 0 2.177 1.74 3.942 3.903 3.998z"/></g></svg>