<svg enable-background="new 0 0 48 48" viewBox="12 12 24 24" xmlns="http://www.w3.org/2000/svg"><g><path d="m15 16.015v-.982c0-.552.471-1.033 1.021-1.033h.979v-.912c0-.552.45-1.088 1-1.088h2c.55 0 1 .536 1 1.088v.912h.979c.55 0 1.021.481 1.021 1.033v.982c0 .552-.471.985-1.021.985h-5.957c-.551 0-1.022-.433-1.022-.985zm10.5-1.015h-1.5v2.019c0 .551-.45.981-1 .981h-8c-.55 0-1-.43-1-.981v-2.019h-1.5c-.275 0-.5.237-.5.513v15.06c0 .276.225.427.5.427h7.3v-2.8h-3v-4.4h3v-3.79l3.2 3.2v-2.21c0-.55.45-1 1-1h2v-4.487c0-.276-.225-.513-.5-.513zm-4.708 16h2.208v-2.208zm11.708-6h3.5l-4-4v3.5c0 .275.225.5.5.5zm-1 1h4.5v9.5c0 .275-.225.5-.5.5h-11c-.275 0-.5-.225-.5-.5v-7.708l1.792-1.792-1.792-1.791v-2.709c0-.275.225-.5.5-.5h6.5v4.5c0 .275.225.5.5.5zm-7.889.001-2.611-2.612v1.611h-3v2h3v1.612z"/></g></svg>