<?xml version="1.0" encoding="utf-8"?><!-- Generator: Adobe Illustrator 27.9.0, SVG Export Plug-In . SVG Version: 6.00 Build 0)  --><svg enable-background="new 0 0 22 22" viewBox="0 0 22 22" xmlns="http://www.w3.org/2000/svg"><path d="m19.5 1.8h-17c-1.2 0-2.3.8-2.3 1.8v14.7c0 1 1 1.8 2.3 1.8h17c1.2 0 2.3-.8 2.3-1.8v-14.6c0-1.1-1-1.9-2.3-1.9zm-3.1 1.1c.5 0 .8.4.8.8 0 .5-.4.8-.8.8-.5 0-.8-.4-.8-.8-.1-.4.3-.8.8-.8zm-2.6 0c.5 0 .8.4.8.8 0 .5-.4.8-.8.8-.5 0-.8-.4-.8-.8-.1-.4.3-.8.8-.8zm5.7 15.4h-17v-12.8h17zm-.7-13.7c-.5 0-.8-.4-.8-.8 0-.5.4-.8.8-.8.5 0 .8.4.8.8.1.4-.3.8-.8.8z"/></svg>