<svg viewBox="0 0 24.18 24.18" xmlns="http://www.w3.org/2000/svg"><g><path d="m14.1 19.48c0 .27-.22.49-.49.49h-3.01c-.27 0-.49-.22-.49-.49v-2.96c0-.27.22-.49.49-.49h3.01c.27 0 .49.22.49.49zm-2.01-19.48c-6.68 0-12.09 5.41-12.09 12.09s5.41 12.09 12.09 12.09 12.09-5.41 12.09-12.09-5.42-12.09-12.09-12.09zm2.81 11.92c-.95.62-1.24 1.16-1.27 2.39 0 .14-.11.24-.25.24h-2.53c-.07 0-.25-.18-.25-.25v-1.01c0-1.05.57-1.98 1.74-2.84.09-.06.97-.64.97-1.43 0-.66-.49-1.12-1.2-1.12-1.01 0-1.57.51-1.62 1.47 0 .13-.12.23-.25.23h-2.66c-.07 0-.13-.03-.18-.08s-.07-.11-.07-.18c.14-2.68 1.88-4.22 4.78-4.22 2.2 0 4.57 1.19 4.57 3.81 0 1.76-.4 2.09-1.79 2.96z"/></g></svg>