<svg enable-background="new 0 0 48 48" viewBox="11.75 11.75 24.5 24.5" xmlns="http://www.w3.org/2000/svg"><g><path d="m32.662 15.338c-4.784-4.784-12.54-4.784-17.324 0s-4.784 12.54 0 17.324 12.54 4.784 17.324 0c4.783-4.784 4.784-12.54 0-17.324zm-5.127 14.318c-.194.195-.513.195-.707 0l-2.828-2.828-2.828 2.828c-.194.195-.513.195-.707 0l-2.121-2.121c-.195-.193-.195-.512 0-.707l2.828-2.828-2.828-2.828c-.195-.195-.195-.514 0-.707l2.121-2.121c.194-.195.512-.195.707 0l2.828 2.828 2.828-2.828c.195-.195.513-.195.707 0l2.121 2.121c.195.193.195.512 0 .707l-2.828 2.828 2.828 2.828c.195.195.195.514 0 .707z"/></g></svg>