<svg enable-background="new 0 0 48 48" viewBox="11.75 11.75 24.5 24.5" xmlns="http://www.w3.org/2000/svg"><g><path d="m24 11.75c-6.755 0-12.25 5.495-12.25 12.25s5.495 12.25 12.25 12.25 12.25-5.495 12.25-12.25-5.495-12.25-12.25-12.25zm0 21.25c-4.963 0-9-4.037-9-9s4.037-9 9-9 9 4.037 9 9-4.037 9-9 9zm5.646-11.84-2.843 2.843 2.839 2.839c.195.195.195.514 0 .707l-2.094 2.094c-.193.195-.512.195-.707 0l-2.839-2.839-2.843 2.843c-.193.193-.512.193-.707 0l-2.094-2.094c-.193-.195-.193-.514 0-.707l2.843-2.843-2.845-2.845c-.195-.195-.195-.514 0-.707l2.094-2.094c.193-.195.512-.195.707 0l2.845 2.845 2.843-2.843c.193-.193.512-.193.707 0l2.094 2.094c.194.195.194.514 0 .707z"/></g></svg>