<svg enable-background="new 0 0 48 48" viewBox="12.21 12.21 23.58 23.58" xmlns="http://www.w3.org/2000/svg"><g><path d="m35.646 23.646-4.293-4.293c-.194-.194-.353-.128-.353.147v2.5h-5v-5l2.484-.013c.275-.002.341-.162.146-.356l-4.277-4.277c-.194-.194-.513-.194-.707 0l-4.293 4.293c-.194.194-.128.353.147.353h2.5v5h-5v-2.5c0-.275-.159-.341-.354-.146l-4.293 4.293c-.194.194-.194.513 0 .707l4.293 4.293c.195.194.354.128.354-.147v-2.5h5v5h-2.5c-.275 0-.341.159-.147.354l4.293 4.293c.194.194.513.194.707 0l4.293-4.293c.195-.195.129-.354-.146-.354h-2.5v-5h5v2.5c0 .275.159.341.353.146l4.293-4.293c.195-.194.195-.512 0-.707z"/></g></svg>