<svg enable-background="new 0 0 48 48" viewBox="11.8 11.66 24.24 24.78" xmlns="http://www.w3.org/2000/svg"><g><path d="m29.1 24.7c0-.2 0-.4 0-.7 0-.2 0-.5 0-.7l-1.4-.3c-.1-.3-.2-.7-.4-.9l.7-1.2c-.3-.4-.6-.7-.9-.9l-1.2.7c-.3-.2-.6-.3-.9-.4l-.3-1.4c-.2 0-.4 0-.7 0-.2 0-.5 0-.7 0l-.3 1.4c-.3.1-.7.2-.9.4l-1.2-.7c-.4.3-.7.6-.9.9l.7 1.2c-.2.3-.3.6-.4.9l-1.4.3v.7.7l1.4.3c.1.3.2.7.4.9l-.7 1.2c.3.4.6.7.9.9l1.2-.7c.3.2.6.3.9.4l.3 1.4h.7.7l.3-1.4c.3-.1.7-.2.9-.4l1.2.7c.4-.3.7-.6.9-.9l-.7-1.2c.2-.3.3-.6.4-.9zm-5.2 1.1c-1 0-1.8-.8-1.8-1.8s.8-1.8 1.8-1.8 1.8.8 1.8 1.8-.8 1.8-1.8 1.8z"/></g><g><path d="m15.1 26.9-2.9.1c-.9-3.4-.3-7.1 1.9-10.1 3.8-5.2 11-6.6 16.4-3h.1l1.5-2.1c.2-.2.4-.2.4.1l1.9 6.3c.1.3-.1.5-.4.5l-6.6.1c-.3 0-.4-.2-.2-.4l1.5-2c-4.1-2.6-9.4-1.6-12.3 2.3-1.8 2.5-2.1 5.5-1.2 8.2zm20.6-5.8-3.1.1c.9 2.7.5 5.7-1.2 8.2-2.8 3.9-8.2 4.9-12.3 2.3l1.5-2c.2-.2.1-.4-.2-.4l-6.6.1c-.3 0-.4.2-.4.5l1.9 6.3c.1.3.3.3.4.1l1.5-2.1h.1c5.4 3.5 12.6 2.2 16.4-3 2.2-3.1 2.8-6.8 2-10.1z"/></g></svg>