<svg enable-background="new 0 0 48 48" viewBox="12 12 26.78 23.96" xmlns="http://www.w3.org/2000/svg"><g><path d="m27 21.483v1.517h.5c.275 0 .5.225.5.5v5c0 .275-.225.5-.5.5h-7c-.275 0-.5-.225-.5-.5v-5c0-.275.225-.5.5-.5h.5v-1.517c0-1.392 1.05-2.483 2.389-2.483h1.223c1.338 0 2.388 1.091 2.388 2.483zm-4 1.517h2v-1.517c0-.298-.149-.483-.389-.483h-1.223c-.239 0-.388.185-.388.483z"/><path d="m38.699 23.4-3.899 5.7c-.165.221-.435.221-.601 0l-3.899-5.7c-.165-.221-.075-.4.2-.4h2.47c-.188-4.312-4.187-8-8.97-8-4.963 0-9 4.037-9 9 0 6.459 5.867 8.976 8.517 8.976s4.308-.561 5.987-1.864l.004.004c.364-.295 1.004-.857 1.252-1.088.302-.28.855-.182 1.23.222l.682.731c.375.402.434.961.133 1.242-.196.182-.327.344-1.17 1.02-1.885 1.426-4.302 2.717-8.218 2.717s-11.417-3.792-11.417-11.96c0-6.617 5.383-12 12-12 6.411 0 11.781 5.219 11.973 10.93l.004.07h2.523c.274 0 .365.181.199.4z"/></g></svg>