<svg enable-background="new 0 0 48 48" viewBox="11.99 11.81 23.97 24.38" xmlns="http://www.w3.org/2000/svg"><g><path d="m15.269 26.919-2.896.05c-.85-3.333-.285-7.002 1.883-10.001 3.756-5.195 10.906-6.515 16.277-3.005l.06.04 1.479-2.045c.161-.224.36-.19.442.071l1.926 6.208c.082.263-.076.481-.351.486l-6.498.112c-.276.005-.368-.174-.208-.394l1.447-2.002c-4.02-2.584-9.342-1.589-12.143 2.286-1.771 2.449-2.121 5.494-1.221 8.161zm20.334-5.817-3.098.054c.881 2.656.528 5.683-1.234 8.119-2.801 3.875-8.123 4.87-12.143 2.287l1.447-2.003c.16-.221.068-.4-.208-.394l-6.498.112c-.274.005-.433.224-.351.485l1.927 6.209c.082.262.281.295.442.072l1.479-2.046.06.04c5.371 3.51 12.521 2.19 16.277-3.005 2.154-2.978 2.725-6.617 1.9-9.93z"/></g></svg>