<svg enable-background="new 0 0 48 48" viewBox="9.22 12 26.78 23.96" xmlns="http://www.w3.org/2000/svg"><g><path d="m24 26c-1.105 0-2-.896-2-2s.895-2 2-2 2 .896 2 2-.895 2-2 2zm0-14c-6.411 0-11.781 5.219-11.973 10.93l-.004.07h-2.523c-.274 0-.365.181-.199.4l3.899 5.7c.165.221.435.221.601 0l3.899-5.7c.165-.221.075-.4-.2-.4h-2.47c.188-4.312 4.187-8 8.97-8 4.963 0 9 4.037 9 9 0 4.647-3.147 7.369-6 8.44 0 0-1.768.52-2.501.536-.276.007-.499.21-.499.486v1.973c0 .276.224.521.5.523.763.005 2.5-.382 2.5-.382 4.131-1.174 9-5.105 9-11.576 0-6.617-5.383-12-12-12z"/></g></svg>