<svg enable-background="new 0 0 48 48" viewBox="12 12 26.78 23.96" xmlns="http://www.w3.org/2000/svg"><g><path d="m26 24c0 1.104-.895 2-2 2s-2-.896-2-2 .895-2 2-2 2 .896 2 2zm12.5-1h-2.523l-.004-.07c-.192-5.711-5.562-10.93-11.973-10.93-6.617 0-12 5.383-12 12 0 6.47 4.869 10.402 9 11.576 0 0 1.737.387 2.5.382.276-.001.5-.247.5-.523v-1.973c0-.276-.223-.479-.499-.485-.733-.017-2.501-.537-2.501-.537-2.853-1.072-6-3.793-6-8.44 0-4.963 4.037-9 9-9 4.783 0 8.781 3.688 8.97 8h-2.47c-.275 0-.365.18-.2.4l3.899 5.699c.166.221.436.221.601 0l3.899-5.699c.166-.219.075-.4-.199-.4z"/></g></svg>