<svg enable-background="new 0 0 48 48" viewBox="9.48 10 29.74 21.96" xmlns="http://www.w3.org/2000/svg"><g><path d="m36.226 20.752c-.955.538-2.054.848-3.226.848-.243 0-.481-.011-.714-.031 2.082 1 3.724 2.156 4.561 2.922-1.124 1.032-3.69 2.996-6.85 4.269 1.47-1.455 2.381-3.474 2.381-5.707 0-.51-.053-1.006-.144-1.49-.841-.081-1.614-.299-2.307-.628.253.66.4 1.37.4 2.119 0 3.304-2.678 5.981-5.981 5.981-3.304 0-5.982-2.678-5.982-5.981 0-.88.195-1.714.537-2.466.997-.36 2.059-.656 3.175-.832-1.048.723-1.737 1.93-1.737 3.298 0 2.212 1.794 4.009 4.007 4.009s4.007-1.797 4.007-4.009c0-1.37-.691-2.579-1.742-3.302.755.115 1.485.296 2.2.5-1.339-1.036-2.202-2.608-2.378-4.517-.672-.089-1.363-.15-2.087-.15-9.844 0-14.868 8.906-14.868 8.906s7.065 7.469 14.868 7.469c7.804 0 14.868-7.469 14.868-7.469s-1.006-1.775-2.988-3.739zm-12.749 4.102-.734.734c-.538-.342-.941-.859-1.178-1.459l.814-.812c.092.676.506 1.25 1.098 1.537zm-11.194-.366c.809-.743 2.275-1.852 4.161-2.83-.079.453-.129.917-.129 1.394 0 2.181.871 4.154 2.28 5.601-2.917-1.273-5.215-3.16-6.312-4.165zm25.717-9.488c0 2.762-2.238 5-5 5-2.761 0-5-1.794-5-5 0-2.984 2.239-5 5-5 2.762 0 5 2.238 5 5zm-2-.5c0-.275-.225-.5-.5-.5h-1.5v-1.5c0-.275-.225-.5-.5-.5h-1c-.275 0-.5.225-.5.5v1.5h-1.5c-.275 0-.5.225-.5.5v1c0 .275.225.5.5.5h1.5v1.5c0 .275.225.5.5.5h1c.275 0 .5-.225.5-.5v-1.5h1.5c.275 0 .5-.225.5-.5z"/></g></svg>