<svg enable-background="new 0 0 48 48" viewBox="13 13 22 22" xmlns="http://www.w3.org/2000/svg"><g><path d="m28.5 28h-2.5v3.5c0 .276-.224.5-.5.5h-3c-.276 0-.5-.224-.5-.5v-3.5h-2.445c-.276 0-.358-.173-.182-.386l4.309-5.228c.176-.213.461-.214.638-.002l4.36 5.232c.177.212.096.384-.18.384zm.5-15h-2v4h2zm6 4.002v16.999c0 .551-.451.999-1.002.999h-19.999c-.55 0-.999-.448-.999-.999v-19.998c0-.551.449-1.003.999-1.003h4.001v5h12v-5h.998zm-3 7.998h-3.214l-4.458-4.978c-.184-.206-.482-.205-.666.001l-4.43 4.977h-3.232v8h16z"/></g></svg>