<svg enable-background="new 0 0 48 48" viewBox="12.03 13.04 24.88 21.92" xmlns="http://www.w3.org/2000/svg"><g><path d="m20.814 27.047c-.595-.373-.964-1.007-1.032-1.782l-6.297 2.985c-1.273.606-1.815 2.134-1.209 3.406l.879 1.846c.606 1.273 2.133 1.815 3.406 1.209l1.776-.82c1.147-.546 1.704-1.795 1.622-3.061l.006-3.383c.001.001.316-.148.849-.4zm-3.239 5.198-2.024.938c-.288.137-.646.01-.783-.278l-1.011-2.123c-.137-.288-.01-.646.278-.783 0 0 2.158-1.001 3.168-1.482.448-.213.799-.075.846.452.072.805.139 2.131.139 2.131.032.487-.173.935-.613 1.145zm7.081-11.244c3.847-1.191 9.386-2.843 9.427-2.854 1.001-.259 2.092-.264 2.824 1.274-.952.453-4.311 2.045-7.79 3.693-1.567-.741-3.115-1.475-4.461-2.113zm-4.69-.449-.006-3.383c.082-1.266-.476-2.515-1.622-3.061l-1.776-.82c-1.273-.606-2.8-.064-3.406 1.209l-.879 1.846c-.606 1.273-.064 2.8 1.209 3.406l7.547 3.578s.016 1.203.016 1.688.193.891.636 1.04c2.627.883 12.346 3.783 12.4 3.797 1.001.259 2.092.264 2.824-1.274-2.179-1.036-16.943-8.026-16.943-8.026zm4.034 3.448c0 .552-.448 1-1 1s-1-.448-1-1 .448-1 1-1 1 .448 1 1zm-9.965-5.998c-.288-.137-.415-.495-.278-.783l1.011-2.123c.137-.288.495-.415.783-.278l2.024.937c.441.21.645.658.614 1.147 0 0-.067 1.326-.139 2.131-.047.527-.398.665-.846.452-1.011-.481-3.169-1.483-3.169-1.483z"/></g></svg>