<svg enable-background="new 0 0 48 48" viewBox="12.26 12.25 23.49 23.49" xmlns="http://www.w3.org/2000/svg"><g><path d="m35.602 32.755-5.878-5.879c.956-1.481 1.521-3.24 1.521-5.132 0-5.235-4.262-9.494-9.496-9.494-5.236 0-9.494 4.259-9.494 9.494 0 5.236 4.258 9.495 9.494 9.495 1.891 0 3.649-.562 5.132-1.519l5.878 5.878c.195.196.518.196.712 0l2.132-2.132c.196-.195.196-.515-.001-.711zm-20.333-11.011c0-3.571 2.906-6.479 6.479-6.479s6.479 2.907 6.479 6.479c0 3.573-2.905 6.479-6.479 6.479-3.572.001-6.479-2.906-6.479-6.479z"/></g></svg>