<svg enable-background="new 0 0 48 48" viewBox="12 13 23 22.5" xmlns="http://www.w3.org/2000/svg"><path d="m30 32v2c0 .5-.5 1-1 1h-2c-.5 0-1-.5-1-1v-2c0-.5.5-1 1-1h2c.5 0 1 .5 1 1z"/><path d="m21 14c0-.6-.5-1-1-1h-3c-.5 0-1 .4-1 1v15h-4l6.5 6.5 6.5-6.5h-4z"/><path d="m30 25h-3c-.5 0-1 .5-1 1v2c0 .5.5 1 1 1h3c.5 0 1-.5 1-1v-2c0-.5-.5-1-1-1z"/><path d="m32 19h-5c-.5 0-1 .5-1 1v2c0 .5.5 1 1 1h5c.5 0 1-.5 1-1v-2c0-.5-.5-1-1-1z"/><path d="m34 13h-7c-.5 0-1 .5-1 1v2c0 .5.5 1 1 1h7c.5 0 1-.5 1-1v-2c0-.5-.5-1-1-1z"/></svg>