<svg enable-background="new 0 0 48 48" viewBox="12 13 23 22.5" xmlns="http://www.w3.org/2000/svg"><path d="m26 16.5v-2c0-.5.5-1 1-1h2c.5 0 1 .5 1 1v2c0 .5-.5 1-1 1h-2c-.5 0-1-.5-1-1z"/><path d="m27 23.5h3c.5 0 1-.5 1-1v-2c0-.5-.5-1-1-1h-3c-.5 0-1 .5-1 1v2c0 .5.5 1 1 1z"/><path d="m34 31.5h-7c-.5 0-1 .5-1 1v2c0 .5.5 1 1 1h7c.5 0 1-.5 1-1v-2c0-.5-.5-1-1-1z"/><path d="m27 29.5h5c.5 0 1-.5 1-1v-2c0-.5-.5-1-1-1h-5c-.5 0-1 .5-1 1v2c0 .5.5 1 1 1z"/><path d="m21 19.5h4l-6.5-6.5-6.5 6.5h4v15c0 .5.5 1 1 1h3c.5 0 1-.5 1-1z"/></svg>