<svg enable-background="new 0 0 48 48" viewBox="12 11 26 25" xmlns="http://www.w3.org/2000/svg"><g><g><path d="m35.5 16.021c1.381 0 2.5-1.117 2.5-2.5s-1.119-2.5-2.5-2.5-2.5 1.117-2.5 2.5c0 .613.229 1.166.594 1.601l-3.32 5.033c-.244-.08-.502-.134-.773-.134-1.381 0-2.5 1.117-2.5 2.5 0 .105.019.205.031.307l-4.654 2.058c-.458-.525-1.125-.864-1.877-.864-1.381 0-2.5 1.117-2.5 2.5 0 .474.139.911.367 1.288l-4.368 5.044v-21.854h-1-1v25h1 24v-1-1h-22.008l4.497-5.196c.309.138.65.217 1.011.217 1.381 0 2.5-1.117 2.5-2.5 0-.089-.018-.173-.026-.26l4.679-2.068c.457.505 1.112.828 1.848.828 1.381 0 2.5-1.117 2.5-2.5 0-.562-.191-1.076-.505-1.493l3.364-5.1c.204.054.417.093.64.093z"/></g><g><path d="m15.604 31h-1.604v-1h2.471zm1.396-4h-3v-1h3v-3h-3v-1h3v-3h-3v-1h3v-3h-3v-1h3v-3h1v3h3v-3h1v3h3v-3h1v3h3v-3h1v3h3v-.479c0 .613.229 1.166.594 1.601l-.594.899v-1.021h-3v3h1.694l-.659 1h-1.035v1.084c-.162-.036-.326-.063-.5-.063-.172 0-.338.018-.5.051v-1.072h-3v3h1.056c-.036.168-.056.342-.056.521 0 .105.019.205.031.307l-.391.172h-.64v.283l-1 .441v-.724h-3v1.531c-.29-.222-.63-.378-1-.455v-1.076h-3v3h.056c-.036.168-.056.342-.056.521 0 .167.037.322.068.479h-.068v1.232l-1 1.155zm9-9h3v-3h-3zm-4 0h3v-3h-3zm0 4h3v-3h-3zm-4-4h3v-3h-3zm0 4h3v-3h-3zm16-10.469v-.531h-1v2.521c0-.817.396-1.534 1-1.99zm0 6.469h3v1h-3v3h3v1h-3v3h3v1h-3v3h3v1h-3v3h-1v-3h-3v3h-1v-3h-3v3h-1v-3h-3v3h-1v-3h-3v3h-1v-2.32l1.454-1.68h2.546v-1.03c.372-.075.708-.239 1-.46v1.49h3v-3h-2.049c.031-.155.049-.315.049-.479 0-.089-.018-.173-.026-.26l.589-.261h1.437v-.635l1-.442v1.077h3v-1.034c.162.033.328.055.5.055s.338-.018.5-.051v1.03h3v-3h-1.049c.031-.155.049-.315.049-.479 0-.18-.025-.353-.062-.521h1.062v-3h-.168l1.168-1.77zm-5 9h-3v3h3zm4 0h-3v3h3z"/></g></g></svg>