<svg enable-background="new 0 0 32 32" viewBox=".56 2.6 31.04 25.25" xmlns="http://www.w3.org/2000/svg"><g><path d="m15.3 15.3-6 8.7v-3.5l5.6-6.1c-.4-.9-.7-1.9-.8-2.9l-13 8c-.8.5-.7.8.2.8h6.2v6.7c0 1 .5 1.1 1.1.4l4.3-5.4 6.2 3.7c.8.5 1.5.1 1.5-.8v-5.3c-1.4-.5-2.7-1.3-3.8-2.3-.6-.6-1.1-1.3-1.5-2z"/><path d="m31.5 8.9c-.3-1.5-1-2.9-2.1-4-1-1-2.1-1.6-3.3-2-.5-.1-1-.2-1.5-.3-.2 0-.5 0-.8 0-.5 0-1 0-1.5.1-1.5.3-2.9 1-4 2.2-1.5 1.4-2.3 3.4-2.3 5.4 0 .8.1 1.7.4 2.5.1.2.2.5.3.7.4.9.9 1.7 1.6 2.4.2.2.4.4.6.5.4.3.8.6 1.3.9.1.1.3.1.4.2.3.1.6.3 1 .4.2.1.5.1.7.2.5.1 1 .1 1.5.1h.8c.5 0 1-.1 1.5-.3.5-.1 1-.3 1.4-.6.5-.2.9-.5 1.3-.9.2-.2.4-.3.6-.5.4-.4.7-.8 1-1.2s.5-.9.7-1.4.3-1 .4-1.5.1-1 .1-1.5c0-.4 0-.9-.1-1.4zm-3.4 3.6c.1.1.1.4 0 .5l-1.6 1.6c-.1.1-.4.1-.5 0l-2.2-2.2-2.2 2.2c-.1.1-.4.1-.5 0l-1.6-1.6c-.1-.1-.1-.4 0-.5l2.2-2.2-2.2-2.2c-.1-.1-.1-.4 0-.5l1.6-1.6c.1-.1.4-.1.5 0l2.2 2.2 2.2-2.2c.1-.1.4-.1.5 0l1.6 1.6c.1.1.1.4 0 .5l-2.1 2.3z"/></g></svg>