<svg enable-background="new 0 0 32 32" viewBox="1.1 1.6 30.6 26.9" xmlns="http://www.w3.org/2000/svg"><path d="m8 18.1c-1.9 1-3.4 2.1-4.2 2.8 1.1 1 3.4 2.9 6.3 4.2-1.4-1.4-2.3-3.4-2.3-5.6.1-.4.1-.9.2-1.4z" fill="none"/><path d="m24 18.1c2 1 3.6 2.1 4.4 2.9-1.1 1-3.7 3-6.9 4.3 1.5-1.5 2.4-3.5 2.4-5.7 0-.5-.1-1-.1-1.4-.8 0-1.5-.1-2.2-.3.2.6.3 1.1.3 1.8 0 3.3-2.7 6-6 6s-6-2.7-6-6c0-.9.2-1.7.5-2.5 1-.4 2.1-.7 3.2-.8-1 .7-1.7 1.9-1.7 3.3 0 2.2 1.8 4 4 4s4-1.8 4-4c0-1.4-.7-2.6-1.7-3.3.1 0 .2 0 .4.1-1.4-1-2.4-2.5-3-4.2-9.6 0-14.5 8.7-14.5 8.7s7.1 7.5 14.9 7.5 14.9-7.5 14.9-7.5-1-1.7-2.8-3.6c-1.1.5-2.3.7-3.6.7-.3 0-.4 0-.5 0zm-8.9 3.2-.7.7c-.5-.3-.9-.9-1.2-1.5l.8-.8c.1.8.5 1.4 1.1 1.6zm-11.2-.3c.8-.7 2.3-1.9 4.2-2.8-.1.5-.1.9-.1 1.4 0 2.2.9 4.2 2.3 5.6-3-1.3-5.3-3.2-6.4-4.2z"/><g><polygon points="22.5 12.1 27.6 4.9 22.5 10.4"/><path d="m24.4 1.6c-4 0-7.3 2.9-7.3 7.3 0 4.7 3.3 7.3 7.3 7.3s7.3-3.2 7.3-7.3-3.3-7.3-7.3-7.3zm3.7 11c0 .5-.3.7-.7.4l-3-1.8-2.1 2.6c-.3.4-.5.3-.5-.2v-3.3h-3c-.5 0-.5-.2-.1-.4l8.8-5.5c.4-.2.7-.1.7.4v7.8z"/></g></svg>