<svg enable-background="new 0 0 48 48" viewBox="12 12 23.9 23.9" xmlns="http://www.w3.org/2000/svg"><g><path d="m35.794 25.491c.065-.505.11-1.016.11-1.539s-.045-1.034-.11-1.539l-3.157-.79c-.205-.767-.507-1.494-.896-2.167l1.673-2.787c-.63-.817-1.361-1.549-2.179-2.179l-2.787 1.673c-.673-.389-1.399-.69-2.167-.895l-.79-3.157c-.505-.066-1.015-.111-1.539-.111-.523 0-1.034.045-1.539.11l-.79 3.157c-.767.205-1.493.507-2.165.895l-2.788-1.674c-.817.63-1.549 1.361-2.179 2.179l1.673 2.787c-.39.673-.691 1.399-.896 2.168l-3.157.79c-.066.506-.111 1.017-.111 1.54s.045 1.034.11 1.539l3.157.79c.205.767.507 1.495.896 2.167l-1.674 2.787c.63.817 1.361 1.549 2.179 2.179l2.787-1.673c.673.389 1.399.69 2.167.896l.79 3.157c.505.066 1.016.11 1.539.11.524 0 1.034-.045 1.539-.11l.79-3.157c.769-.206 1.495-.507 2.168-.896l2.788 1.673c.816-.63 1.548-1.361 2.178-2.179l-1.674-2.787c.389-.673.69-1.399.896-2.166zm-11.842 2.642c-2.309 0-4.181-1.872-4.181-4.181s1.872-4.181 4.181-4.181 4.181 1.872 4.181 4.181-1.872 4.181-4.181 4.181z"/></g></svg>