<svg enable-background="new 0 0 48 48" viewBox="12 12 24 24" xmlns="http://www.w3.org/2000/svg"><g><g><path d="m24 12c-6.617 0-12 5.383-12 12s5.383 12 12 12 12-5.383 12-12-5.383-12-12-12zm0 21c-4.971 0-9-4.029-9-9s4.029-9 9-9 9 4.029 9 9-4.029 9-9 9zm1-10.723v-4.762c0-.275-.242-.515-.517-.515h-.982c-.274 0-.5.24-.5.516l-.001 4.761c-.3.175-.548.423-.723.723h-2.777c-.275 0-.5.273-.5.548v.952c0 .275.225.5.5.5h2.777c.346.595.984 1 1.723 1 1.105 0 2-.896 2-2 0-.738-.405-1.376-1-1.723z"/></g></g></svg>