<svg enable-background="new 0 0 48 48" viewBox="13 12 22 24" xmlns="http://www.w3.org/2000/svg"><g><path d="m25 34.5v1c0 .276-.224.5-.5.5h-1c-.276 0-.5-.224-.5-.5v-1c0-.276.224-.5.5-.5h1c.276 0 .5.224.5.5zm-4.044-8.457c.364.394.354 1.003-.023 1.384l-6.222 6.277c-.192.193-.449.296-.711.296-.128 0-.257-.024-.381-.075-.374-.154-.619-.52-.619-.925v-13c0-.411.252-.781.635-.931.384-.149.819-.05 1.099.251zm-2.119.656-3.837-4.146v8.018zm5.663 3.301h-1c-.276 0-.5.224-.5.5v1c0 .276.224.5.5.5h1c.276 0 .5-.224.5-.5v-1c0-.276-.224-.5-.5-.5zm9.865-10.931c-.383-.15-.819-.05-1.099.251l-6.222 6.723c-.364.394-.354 1.003.023 1.384l6.222 6.277c.192.193.449.296.711.296.128 0 .257-.024.381-.075.374-.154.619-.52.619-.925v-13c0-.411-.252-.781-.635-.931zm-9.865 6.931h-1c-.276 0-.5.224-.5.5v1c0 .276.224.5.5.5h1c.276 0 .5-.224.5-.5v-1c0-.276-.224-.5-.5-.5zm4.5-10.25v-3.621c0-.142-.082-.176-.182-.075l-1.347 1.347c-.966-.731-2.165-1.172-3.47-1.172-2.759 0-5.061 1.938-5.63 4.527-.031.135.062.244.2.244h1.038c.138 0 .276-.109.316-.241.534-1.75 2.153-3.03 4.075-3.03.89 0 1.704.289 2.383.759l-1.33 1.33c-.1.1-.066.182.076.182h3.621c.138 0 .25-.112.25-.25zm-4.5 2.25h-1c-.276 0-.5.224-.5.5v1c0 .276.224.5.5.5h1c.276 0 .5-.224.5-.5v-1c0-.276-.224-.5-.5-.5zm0 4h-1c-.276 0-.5.224-.5.5v1c0 .276.224.5.5.5h1c.276 0 .5-.224.5-.5v-1c0-.276-.224-.5-.5-.5z"/></g></svg>