<svg enable-background="new 0 0 48 48" viewBox="11 12 26 24" xmlns="http://www.w3.org/2000/svg"><g><path d="m19 15v-2c0-.55.45-1 1-1h8c.55 0 1 .45 1 1v2c0 .55-.45 1-1 1h-8c-.55 0-1-.45-1-1zm8 17h-6c-.55 0-1 .45-1 1v2c0 .55.45 1 1 1h6c.55 0 1-.45 1-1v-2c0-.55-.45-1-1-1zm-9 0h-6c-.55 0-1 .45-1 1v2c0 .55.45 1 1 1h6c.55 0 1-.45 1-1v-2c0-.55-.45-1-1-1zm18 0h-6c-.55 0-1 .45-1 1v2c0 .55.45 1 1 1h6c.55 0 1-.45 1-1v-2c0-.55-.45-1-1-1zm-18.024-4h-1.976v-4h7v4h-1.976l2.976 3 2.976-3h-1.976v-4h7v4h-1.976l2.976 3 2.976-3h-1.976v-5.5c0-.275-.225-.5-.5-.5h-8.5v-5h-2v5h-8.5c-.275 0-.5.225-.5.5v5.5h-1.976l2.976 3z"/></g></svg>