<svg enable-background="new 0 0 48 48" viewBox="7.02 12.11 33.72 26.62" xmlns="http://www.w3.org/2000/svg"><g><g><path d="m30.81 25.599c.066-.505.11-1.016.11-1.539 0-.524-.045-1.034-.11-1.539l-3.157-.79c-.205-.768-.507-1.494-.896-2.167l1.673-2.787c-.63-.817-1.361-1.549-2.179-2.179l-2.787 1.673c-.673-.389-1.399-.69-2.167-.896l-.79-3.157c-.505-.066-1.016-.11-1.539-.11-.524 0-1.034.045-1.539.11l-.79 3.157c-.767.205-1.493.507-2.165.896l-2.788-1.674c-.817.63-1.549 1.361-2.179 2.179l1.673 2.787c-.39.673-.691 1.399-.896 2.168l-3.157.79c-.066.505-.11 1.016-.11 1.539s.045 1.034.11 1.539l3.157.79c.205.768.507 1.495.896 2.167l-1.674 2.787c.63.817 1.361 1.549 2.179 2.179l2.787-1.673c.673.389 1.399.691 2.167.895l.79 3.157c.505.065 1.016.11 1.539.11s1.034-.045 1.539-.11l.79-3.157c.768-.206 1.495-.507 2.168-.896l2.788 1.673c.816-.63 1.548-1.361 2.178-2.179l-1.674-2.787c.389-.673.69-1.398.896-2.166zm-11.841 2.641c-2.309 0-4.181-1.872-4.181-4.181s1.872-4.181 4.181-4.181 4.181 1.872 4.181 4.181-1.873 4.181-4.181 4.181z"/></g><path d="m35 38.732c-.25 0-.496-.021-.738-.053l-.379-1.515-.056-.016c-.326-.093-.641-.224-.935-.387l-.051-.028-1.337.803c-.421-.331-.756-.671-1.046-1.047l.802-1.337-.028-.051c-.165-.297-.295-.611-.385-.934l-.016-.056-1.516-.379c-.034-.278-.053-.507-.053-.74 0-.25.021-.496.053-.738l1.516-.379.016-.056c.09-.321.22-.636.386-.935l.028-.051-.803-1.338c.328-.417.667-.752 1.047-1.045l1.337.802.051-.028c.297-.165.611-.295.934-.385l.056-.016.379-1.516c.278-.034.507-.053.738-.053.252 0 .496.022.74.053l.379 1.516.056.016c.322.09.637.22.934.385l.051.028 1.336-.802c.421.331.757.669 1.048 1.045l-.803 1.338.028.051c.163.294.294.608.387.935l.016.056 1.515.379c.034.278.053.507.053.738 0 .252-.021.498-.053.74l-1.515.379-.016.056c-.094.326-.224.641-.387.934l-.027.051.802 1.336c-.331.421-.669.757-1.045 1.048l-1.337-.804-.051.028c-.293.163-.608.294-.936.388l-.056.016-.379 1.516c-.279.034-.507.052-.74.052zm0-7.884c-1.184 0-2.147.963-2.147 2.146 0 1.185.963 2.149 2.147 2.149 1.185 0 2.148-.964 2.148-2.149 0-1.184-.963-2.146-2.148-2.146z"/></g></svg>