<svg enable-background="new 0 0 48 48" viewBox="9.48 15.58 29.74 16.38" xmlns="http://www.w3.org/2000/svg"><g><path d="m24.347 15.583c-9.844 0-14.868 8.906-14.868 8.906s7.065 7.469 14.868 7.469 14.868-7.469 14.868-7.469-5.025-8.906-14.868-8.906zm-.87 9.271-.734.734c-.538-.342-.941-.859-1.178-1.459l.813-.812c.093.676.507 1.25 1.099 1.537zm-3.137-1.802c0 2.212 1.794 4.009 4.007 4.009s4.007-1.797 4.007-4.009c0-1.37-.691-2.579-1.742-3.302 1.092.167 2.15.441 3.154.782.357.767.562 1.618.562 2.52 0 3.304-2.678 5.981-5.981 5.981s-5.982-2.678-5.982-5.981c0-.88.195-1.714.537-2.466.997-.36 2.059-.656 3.175-.832-1.048.723-1.737 1.93-1.737 3.298zm-3.896-1.394c-.079.453-.129.917-.129 1.394 0 2.181.871 4.154 2.28 5.601-2.918-1.272-5.216-3.159-6.312-4.164.809-.744 2.276-1.852 4.161-2.831zm13.553 7.101c1.47-1.455 2.381-3.474 2.381-5.707 0-.517-.054-1.021-.146-1.511 2.108 1.006 3.771 2.176 4.615 2.949-1.124 1.032-3.691 2.996-6.85 4.269z"/></g></svg>