<svg enable-background="new 0 0 48 48" viewBox="12 11.97 23.75 24.08" xmlns="http://www.w3.org/2000/svg"><g><path d="m35.75 24c0 4.558-1.596 8.748-4.253 12.049l-1.546-1.267c2.374-2.956 3.799-6.705 3.799-10.782 0-4.089-1.433-7.848-3.819-10.808l1.581-1.223c2.648 3.299 4.238 7.482 4.238 12.031zm-7.4-9.586-1.582 1.223c1.863 2.283 2.982 5.194 2.982 8.363 0 3.116-1.084 5.982-2.892 8.248l1.546 1.268c2.091-2.611 3.346-5.919 3.346-9.516 0-3.629-1.276-6.965-3.4-9.586zm-3.164 2.445-1.583 1.225c1.338 1.606 2.147 3.668 2.147 5.916 0 2.155-.747 4.137-1.988 5.711l1.551 1.27c1.523-1.92 2.438-4.345 2.438-6.98-.001-2.71-.964-5.198-2.565-7.142zm-3.186-.567c0-.275-.168-.35-.373-.167l-4.855 4.563c-.205.183-.599.333-.873.333h-3.399c-.275 0-.5.225-.5.5v3.979c0 .275.225.5.5.5h3.464c.274 0 .663.154.863.344l4.81 4.562c.2.189.363.118.363-.156z"/></g></svg>