<svg enable-background="new 0 0 48 48" viewBox="10.92 11.04 26.16 22.96" xmlns="http://www.w3.org/2000/svg"><g><path d="m36.845 32.268-11.845-20.517c-.55-.953-1.45-.953-2 0l-11.845 20.517c-.55.953-.1 1.732 1 1.732h23.691c1.099 0 1.549-.779.999-1.732zm-10.845-.768c0 .275-.225.5-.5.5h-3c-.275 0-.5-.225-.5-.5v-3c0-.275.225-.5.5-.5h3c.275 0 .5.225.5.5zm0-9c0 .275-.044.721-.098.99l-.9 2.77c-.053.269-.322.74-.598.74h-.785c-.275 0-.545-.471-.6-.74l-.92-2.645c-.055-.27-.1-.84-.1-1.115v-4c0-.275.225-.5.5-.5h3c.275 0 .5.225.5.5v4z"/></g></svg>