<svg enable-background="new 0 0 48 48" viewBox="13 12.25 24.37 24.37" xmlns="http://www.w3.org/2000/svg"><g><path d="m19.5 23c-.275 0-.5-.225-.5-.5v-1c0-.275.225-.5.5-.5h7c.275 0 .5.225.5.5v1c0 .275-.225.5-.5.5z"/><path d="m37.219 34.257-2.213 2.212c-.202.202-.534.202-.736 0l-6.098-6.099c-1.537.993-3.362 1.577-5.323 1.577-5.431 0-9.849-4.418-9.849-9.849s4.418-9.849 9.849-9.849 9.849 4.418 9.849 9.849c0 1.961-.584 3.786-1.576 5.323l6.098 6.098c.202.203.202.535-.001.738zm-7.651-12.158c0-3.706-3.014-6.72-6.72-6.72s-6.72 3.014-6.72 6.72 3.014 6.72 6.72 6.72c3.707-.001 6.72-3.014 6.72-6.72z"/></g></svg>