<svg xmlns="http://www.w3.org/2000/svg" xmlns:xlink="http://www.w3.org/1999/xlink" version="1.1" id="Layer_1" x="0px" y="0px" style="enable-background:new 0 0 370 364.6;" xml:space="preserve" viewBox="9 8.4 351.2 345.2">
<style type="text/css">
	.st0{fill:#1DA1F2;}
	.st1{fill:#07283D;}
	.st2{fill:none;stroke:#ED1C24;stroke-width:0.6162;stroke-miterlimit:10;}
	.st3{fill:none;stroke:#7AC943;stroke-width:0.6162;stroke-miterlimit:10;}
</style>
<g>
	<g>
		<g>
			<path class="st0" d="M249.1,153.2c-3.9,0-6,2-6,5.7v2c0,4.7,3.3,5.7,6,5.7c3.8,0,6-2,6-5.7v-2     C255.1,155.1,253.1,153.2,249.1,153.2z"/>
			<path class="st0" d="M249.1,174.9c-3.9,0-6,2-6,5.7v2c0,4.7,3.3,5.7,6,5.7c3.8,0,6-2,6-5.7v-2     C255.1,176.8,253.1,174.9,249.1,174.9z"/>
			<path class="st0" d="M249.1,196.6c-3.9,0-6,2-6,5.7v2c0,4.7,3.3,5.7,6,5.7c3.8,0,6-2,6-5.7v-2     C255.1,198.5,253.1,196.6,249.1,196.6z"/>
		</g>
	</g>
	<path class="st1" d="M110,200.7L110,200.7c-1.8-1.6-4.2-2.8-6.9-3.7c-2.3-0.7-5.5-1.2-8.5-1.3c-1.6-0.1-4.8-0.1-4.8-0.1l1.2-3.4   c0,0,3.5,0,4.6-0.1c3.1-0.1,5.8-0.7,8-1.3c2.8-0.8,5.1-2,6.9-3.6c1.9-1.6,3.2-3.7,4.1-6.1c0.8-2.3,1.2-5.1,1.2-8.3   c0-3.1-0.4-5.8-1.2-8.2c-0.9-2.4-2.2-4.4-4.1-6.1c-0.9-0.8-2-1.5-3.3-2.2l0.8-1.9l0-0.1c0.4-1.3,0.1-2.6-0.8-3.7   c-0.8-0.8-1.7-1.5-2.8-2c-1.2-0.5-2.4-0.8-3.5-0.7c-1.5,0-2.8,0.9-3.4,2.3l-1.6,3.2c-0.1,0-6.5-0.3-11.9,0   c-3.1,0.2-5.6,0.7-7.8,1.3c-2.8,0.8-5.1,2.1-6.9,3.6c-1.8,1.6-3.2,3.7-4,6.1c-0.8,2.3-1.2,5.1-1.2,8.2c0,3.2,0.4,5.9,1.2,8.3   c0.8,2.4,2.2,4.5,4,6.1c1.8,1.6,4.1,2.8,6.9,3.6c1.1,0.3,2.3,0.6,3.6,0.8l-1.9,4.9c-0.8,0.2-1.5,0.4-2.2,0.6   c-2.8,0.8-5.1,2.1-6.9,3.6c-1.8,1.6-3.2,3.7-4,6.1c-0.8,2.3-1.2,5.1-1.2,8.2c0,3.4,0.5,6.4,1.4,8.8c1,2.5,2.6,4.7,4.8,6.3   c2.1,1.6,4.9,2.7,8.1,3.4c1.9,0.4,4.1,0.7,6.5,0.8c1.2,0.1,6.9,0.1,10,0c2.4-0.1,4.6-0.4,6.6-0.8c3.3-0.7,6.1-1.8,8.2-3.4   c2.2-1.6,3.8-3.7,4.8-6.3c1-2.4,1.4-5.4,1.4-8.8c0-3.1-0.4-5.8-1.2-8.1C113.2,204.4,111.8,202.3,110,200.7z M78.2,180.1   c-1-0.7-1.6-1.6-2-2.7l0,0c-0.4-1.2-0.7-2.8-0.7-4.7c0-1.9,0.2-3.4,0.7-4.7c0.4-1.1,1.1-2,2-2.7c1-0.8,2.5-1.3,4.3-1.7   c0.8-0.2,1.6-0.3,2.6-0.4c1.5-0.1,3.1-0.2,4.9-0.2c1.8,0,3.4,0.1,4.8,0.2c0.8,0.1,1.5,0.2,2.2,0.3c1.8,0.4,3.3,0.9,4.4,1.7   c1.1,0.7,1.8,1.6,2.3,2.8c0.5,1.2,0.8,2.8,0.8,4.7c0,1.9-0.2,3.4-0.7,4.7c-0.4,1.1-1.1,2-2,2.7c-1,0.8-2.5,1.3-4.3,1.7   c-0.8,0.2-1.7,0.3-2.7,0.4c-1.4,0.1-3.1,0.2-4.8,0.2c-1.8,0-3.5-0.1-4.9-0.2c-0.9-0.1-1.8-0.2-2.5-0.4   C80.6,181.5,79.2,180.9,78.2,180.1z M89.4,224.6c-3.4,0-6.9-0.4-7.4-0.5c-1.8-0.4-3.3-0.9-4.3-1.7c-1-0.7-1.6-1.6-2-2.7   c-0.4-1.2-0.7-2.8-0.7-4.7c0-1.9,0.2-3.5,0.7-4.7c0.4-1.1,1.1-2,2-2.7c1-0.8,2.5-1.3,4.3-1.7c0.8-0.2,1.6-0.3,2.5-0.4   c1.5-0.1,3.1-0.2,4.9-0.2c1.8,0,3.4,0.1,4.8,0.2c0.8,0.1,1.5,0.2,2.2,0.3c1.8,0.4,3.3,0.9,4.4,1.7c1.1,0.7,1.8,1.6,2.3,2.8   c0.5,1.2,0.8,2.8,0.8,4.7c0,1.9-0.2,3.4-0.7,4.7c-0.4,1.1-1.1,2-2,2.7c-1,0.8-2.5,1.3-4.3,1.7C96.3,224.1,93.7,224.5,89.4,224.6z"/>
	<path class="st1" d="M228.6,157.5c-1.6-1.2-3.8-2.2-6.5-2.9c-2.6-0.6-5.6-1-9.1-1.2c-1.4-0.1-3-0.2-4.8-0.2c-0.7,0-2.4,0-2.4,0   c-1.8,0-3.3,0.1-4.8,0.2c-3.5,0.2-6.5,0.6-9.1,1.2c-2.7,0.7-4.9,1.6-6.5,2.9c-1.9,1.4-2.8,3.4-2.8,5.7V206c0,1.7,0.9,3,2.4,3.4   c1.3,0.4,3,0.5,4.8,0.4c0.7,0,1.3-0.2,1.8-0.4c0.6-0.3,1.1-0.7,1.6-1.2c0.5-0.6,0.7-1.3,0.7-2.2v-39.4c0-0.4,0-0.8,0.1-1.1   c0-0.1,0-0.2,0.2-0.4c0.1-0.1,0.4-0.3,1-0.7c0.6-0.3,1.5-0.5,2.6-0.7c1.2-0.2,2.9-0.4,4.8-0.5c2-0.1,5.4-0.1,8.6,0   c2,0.1,3.6,0.3,4.8,0.5c1.2,0.2,2.1,0.4,2.6,0.7c0.7,0.3,1,0.6,1,0.7c0.2,0.2,0.2,0.3,0.2,0.4c0.1,0.4,0.1,0.7,0.1,1.1V206   c0,0.9,0.2,1.6,0.7,2.2c0.4,0.5,0.9,0.9,1.6,1.2c0.5,0.2,1.1,0.4,1.8,0.4c0.5,0,0.9,0.1,1.4,0.1c1.3,0,2.5-0.1,3.4-0.4   c1.5-0.5,2.4-1.7,2.4-3.4v-42.8C231.4,160.9,230.5,159,228.6,157.5z"/>
	<path class="st0" d="M314.3,174.6L314.3,174.6c-0.2-2.3-0.6-4.5-1.2-6.6c-0.6-2.1-1.5-4.1-2.7-5.9c-1.2-1.8-2.8-3.5-4.7-4.8   c-1.9-1.3-4.3-2.3-7-3.1c-2.7-0.7-5.9-1-9.6-1h-0.3c-3.7,0-6.9,0.4-9.5,1c-2.7,0.7-5.1,1.7-7,3c-2,1.3-3.5,2.9-4.7,4.8   c-1.2,1.8-2,3.8-2.6,5.9c-0.6,2.1-1,4.3-1.2,6.6c-0.2,2.2-0.3,4.6-0.3,6.9v0.2c0,2.4,0.1,4.7,0.3,6.9c0.2,2.3,0.6,4.5,1.2,6.6   c0.6,2.1,1.5,4.1,2.6,5.9c1.2,1.9,2.8,3.5,4.7,4.8c1.9,1.3,4.3,2.3,7,3c2.7,0.7,5.9,1,9.5,1h0.3c3.7,0,6.9-0.4,9.6-1   c2.7-0.7,5.1-1.7,7-3.1c1.9-1.3,3.5-2.9,4.7-4.8c1.2-1.8,2.1-3.8,2.7-5.9c0.6-2.1,1-4.3,1.2-6.6c0.2-2.3,0.3-4.6,0.3-6.9v-0.2   C314.6,179.1,314.5,176.8,314.3,174.6z M288.5,163.6h1c3,0,5.4,0.4,7.2,1.1c1.6,0.7,2.9,1.7,3.7,3c0.9,1.4,1.5,3.1,1.9,5.2   c0.3,2.3,0.5,4.9,0.5,7.9v1.6c0,3-0.2,5.6-0.5,7.9c-0.3,2.1-0.9,3.8-1.9,5.2c-0.9,1.3-2.1,2.3-3.7,3c-1.7,0.7-4.2,1.1-7.2,1.1h-1   c-3,0-5.4-0.4-7.2-1.1c-1.6-0.7-2.9-1.7-3.7-3c-0.9-1.4-1.5-3.1-1.8-5.2c-0.3-2.3-0.5-4.9-0.5-7.9v-1.6c0-2.9,0.2-5.6,0.5-7.9   c0.3-2.1,0.9-3.8,1.8-5.2c0.9-1.3,2.1-2.3,3.7-3C283.1,164,285.5,163.6,288.5,163.6z"/>
	<path class="st1" d="M172.3,170.5c-0.5-3-1.1-5.7-2.4-7.9c-1.4-2.2-3.2-4-5.5-5.4c-2.2-1.3-4.8-2.3-7.8-3c-2.9-0.6-6-0.9-9.3-0.9   c-5.2,0-9.4,0.7-12.6,2.1c-3.3,1.4-5.9,3.5-7.6,6.2c-1.7,2.6-2.8,5.8-3.3,9.4c-0.5,3.5-0.6,7.4-0.5,11.7c0.1,2.7,0.2,5.2,0.4,7.5   c0.2,2.4,0.6,4.6,1.2,6.6c0.6,2.1,1.5,3.9,2.6,5.5c1.2,1.7,2.7,3.1,4.6,4.2c1.9,1.1,4.2,2,6.9,2.5c2.6,0.5,5.8,0.8,9.4,0.8   c3.1,0,5.9-0.2,8.4-0.7c2.5-0.5,4.7-1.1,6.5-1.9c1.9-0.9,3.3-1.9,4.4-3c1.2-1.3,1.7-2.8,1.7-4.3c0-1.3-0.5-2.4-1.4-3.2   c-0.9-0.9-2-1.3-3.4-1.2l-0.2,0c-0.7,0.1-1.5,0.4-2.4,1c-0.7,0.4-1.6,0.9-2.8,1.4c-1.2,0.5-2.7,1-4.6,1.4c-1.8,0.4-4.1,0.6-6.9,0.6   c-2.7,0-4.9-0.3-6.6-0.8c-1.5-0.5-2.8-1.2-3.6-2.1c-0.9-0.9-1.5-2-1.8-3.4c-0.4-2.1-0.4-3-0.5-4.7c0-0.5-0.1-1-0.1-1.5l33.5-3.9   c3.8-0.5,4.5-1.3,4.4-4.7c0-1.3-0.2-2.8-0.3-4.2C172.5,172.7,172.4,171.2,172.3,170.5z M138.8,165.2c1-0.7,2.4-1.3,4.1-1.6   c1.8-0.4,4-0.6,6.5-0.6c1.5,0,3,0.2,4.4,0.6c1.4,0.4,2.6,0.9,3.7,1.6c1,0.7,1.9,1.5,2.5,2.5c0.6,0.9,1.1,2.4,1.2,4.7   c0.1,1.1,0.1,2.4,0.1,3.4l-27,3.1c0-0.9,0-1.8,0.1-2.6c0.1-1.8,0.3-3.5,0.6-5c0.3-1.4,0.7-2.6,1.3-3.7   C137,166.7,137.8,165.9,138.8,165.2z"/>
</g>
<path class="st0" d="M284.7,44.1c-0.2,0-0.4-0.1-0.6-0.2c-26.3-19.3-57.4-30.4-90-32.2c-0.6,0-1-0.5-0.9-1.1s0.5-1,1.1-0.9  c33,1.8,64.4,13.1,91.1,32.6c0.4,0.3,0.5,1,0.2,1.4C285.3,43.9,285,44.1,284.7,44.1z"/>
<path class="st0" d="M50.3,78.5c-0.4,0-0.9-0.1-1.2-0.4c-0.9-0.7-1-1.9-0.4-2.8C81.5,32.8,131,8.4,184.6,8.4c3.2,0,6.5,0.1,9.7,0.3  c1.1,0.1,1.9,1,1.9,2.1c-0.1,1.1-1,1.9-2.1,1.9c-3.1-0.2-6.3-0.3-9.4-0.3c-52.4,0-100.8,23.8-132.8,65.4  C51.4,78.3,50.9,78.5,50.3,78.5z"/>
<path class="st0" d="M18,217.8c-2.8,0-5.3-2-5.9-4.9C10.1,202.2,9,191.1,9,180c0-39.2,12.6-76.2,36.5-107.1c2-2.6,5.8-3.1,8.4-1.1  c2.6,2,3.1,5.8,1.1,8.4C32.8,109,21,143.5,21,180c0,10.3,1,20.7,2.9,30.7c0.6,3.3-1.5,6.4-4.8,7C18.8,217.8,18.4,217.8,18,217.8z"/>
<path class="st0" d="M32.4,256.8c-0.7,0-1.4-0.4-1.8-1.1c-6.8-13.8-11.7-28.4-14.5-43.5c-0.2-1.1,0.5-2.1,1.6-2.3  c1.1-0.2,2.1,0.5,2.3,1.6c2.8,14.7,7.6,29,14.2,42.4c0.5,1,0.1,2.2-0.9,2.7C33,256.7,32.7,256.8,32.4,256.8z"/>
<path class="st2" d="M32.4,254.8"/>
<path class="st2" d="M86,318"/>
<path class="st0" d="M184.6,353.6c-36.5,0-71.4-11.2-100.9-32.3c-1.8-1.3-2.2-3.8-0.9-5.6c1.3-1.8,3.8-2.2,5.6-0.9  c28.2,20.2,61.5,30.9,96.3,30.9c9.5,0,19.1-0.8,28.4-2.4c2.2-0.4,4.2,1.1,4.6,3.3c0.4,2.2-1.1,4.2-3.3,4.6  C204.6,352.7,194.6,353.6,184.6,353.6z"/>
<path class="st0" d="M213.7,348.1c-0.5,0-0.9-0.3-1-0.8c-0.1-0.5,0.3-1.1,0.8-1.2c42.6-7.4,80.4-30.6,106.4-65.5  c0.3-0.4,1-0.5,1.4-0.2c0.4,0.3,0.5,1,0.2,1.4c-26.3,35.3-64.5,58.8-107.7,66.3C213.8,348.1,213.8,348.1,213.7,348.1z"/>
<path class="st3" d="M320.7,281.2"/>
<path class="st3" d="M343.4,239.7"/>
<path class="st0" d="M343.4,245.7c-0.7,0-1.4-0.1-2.1-0.4c-3.1-1.2-4.7-4.6-3.5-7.7c6.9-18.4,10.4-37.8,10.4-57.6c0-3.3,2.7-6,6-6  s6,2.7,6,6c0,21.3-3.8,42.1-11.2,61.9C348.1,244.3,345.8,245.7,343.4,245.7z"/>
<path class="st0" d="M354.2,182c-1.1,0-2-0.9-2-2c0-35.7-11.1-69.8-32-98.5c-0.7-0.9-0.5-2.1,0.4-2.8c0.9-0.7,2.1-0.5,2.8,0.4  c21.4,29.5,32.8,64.3,32.8,100.9C356.2,181.1,355.3,182,354.2,182z"/>
</svg>