<svg xmlns="http://www.w3.org/2000/svg" xmlns:xlink="http://www.w3.org/1999/xlink" version="1.1" id="Layer_1" x="0px" y="0px" style="enable-background:new 0 0 385 212.9;" xml:space="preserve" viewBox="7.3 3.1 365.2 199.5">
<style type="text/css">
	.st0{fill:#D2ECFC;}
	.st1{fill:#32475A;}
	.st2{fill:#E4EFFD;}
</style>
<ellipse class="st0" cx="190" cy="187.9" rx="144.8" ry="14.7"/>
<g>
	<path class="st1" d="M135.9,63.4v60h11.4v15.7h-11.4v19.5h-19.1v-19.5H75.3v-16.4c3.7-4.1,7.5-8.6,11.4-13.5   c3.9-4.9,7.7-9.9,11.4-15.1c3.7-5.2,7.1-10.4,10.3-15.6c3.2-5.2,5.9-10.3,8.1-15H135.9z M94.1,123.5h22.7V90.2   c-1.5,2.9-3.2,5.8-5,8.7c-1.8,2.9-3.7,5.8-5.7,8.7s-4,5.6-6,8.3C97.9,118.6,96,121.1,94.1,123.5z"/>
	<path class="st1" d="M189.5,160.3c-22.7,0-34-15.9-34-47.7c0-16.5,3.1-29.1,9.2-37.8c6.1-8.7,15-13,26.7-13   c22.1,0,33.2,16.2,33.2,48.5c0,16.1-3,28.5-9.1,37.1C209.4,156,200.8,160.3,189.5,160.3z M190.4,77.8c-9.1,0-13.6,11.4-13.6,34.2   c0,21.5,4.4,32.2,13.3,32.2c8.7,0,13-11.1,13-33.2C203.2,88.9,198.9,77.8,190.4,77.8z"/>
	<path class="st1" d="M292.4,63.4v60h11.4v15.7h-11.4v19.5h-19.1v-19.5h-41.5v-16.4c3.7-4.1,7.5-8.6,11.4-13.5   c3.9-4.9,7.7-9.9,11.4-15.1c3.7-5.2,7.1-10.4,10.3-15.6c3.2-5.2,5.9-10.3,8.1-15H292.4z M250.5,123.5h22.7V90.2   c-1.5,2.9-3.2,5.8-5,8.7c-1.8,2.9-3.7,5.8-5.7,8.7s-4,5.6-6,8.3C254.4,118.6,252.4,121.1,250.5,123.5z"/>
</g>
<circle class="st2" cx="13.6" cy="90.9" r="6.3"/>
<circle class="st2" cx="23.6" cy="134.5" r="9.8"/>
<circle class="st2" cx="349.4" cy="142.6" r="11.2"/>
<circle class="st2" cx="364.6" cy="109.2" r="7.9"/>
<circle class="st2" cx="334.8" cy="90.1" r="5.7"/>
<circle class="st2" cx="139" cy="16.6" r="4.6"/>
<circle class="st2" cx="239.3" cy="35.7" r="3.3"/>
<circle class="st2" cx="281.8" cy="9.6" r="6.5"/>
<circle class="st2" cx="49.6" cy="75.3" r="7.9"/>
</svg>